<svg xmlns="http://www.w3.org/2000/svg" xmlns:xlink="http://www.w3.org/1999/xlink" xmlns:lucid="lucid" width="3489.54" height="1340.5"><g transform="translate(-60 2540)" lucid:page-tab-id="923GnNRaYiRh"><path d="M0-2592h5152V64H0z" fill="#fff"/><path d="M80-2514a6 6 0 0 1 6-6h798a6 6 0 0 1 6 6v256.87a6 6 0 0 1-6 6H86a6 6 0 0 1-6-6z" stroke="#282c33" fill="#365e74"/><use xlink:href="#a" transform="matrix(1,0,0,1,104,-2496) translate(0 31.111111111111097)"/><use xlink:href="#b" transform="matrix(1,0,0,1,104,-2496) translate(77.15555555555552 31.111111111111097)"/><use xlink:href="#c" transform="matrix(1,0,0,1,104,-2496) translate(0 68.35999999999996)"/><use xlink:href="#d" transform="matrix(1,0,0,1,104,-2496) translate(55.111111111111065 68.35999999999996)"/><use xlink:href="#e" transform="matrix(1,0,0,1,104,-2496) translate(192.88888888888874 68.35999999999996)"/><use xlink:href="#f" transform="matrix(1,0,0,1,104,-2496) translate(344.44444444444423 68.35999999999996)"/><use xlink:href="#g" transform="matrix(1,0,0,1,104,-2496) translate(385.77777777777754 68.35999999999996)"/><use xlink:href="#h" transform="matrix(1,0,0,1,104,-2496) translate(440.88888888888863 68.35999999999996)"/><use xlink:href="#i" transform="matrix(1,0,0,1,104,-2496) translate(537.333333333333 68.35999999999996)"/><use xlink:href="#j" transform="matrix(1,0,0,1,104,-2496) translate(0 96.31555555555549)"/><use xlink:href="#k" transform="matrix(1,0,0,1,104,-2496) translate(137.7777777777777 96.31555555555549)"/><use xlink:href="#l" transform="matrix(1,0,0,1,104,-2496) translate(220.4444444444443 96.31555555555549)"/><use xlink:href="#m" transform="matrix(1,0,0,1,104,-2496) translate(261.7777777777776 96.31555555555549)"/><use xlink:href="#n" transform="matrix(1,0,0,1,104,-2496) translate(316.8888888888887 96.31555555555549)"/><use xlink:href="#o" transform="matrix(1,0,0,1,104,-2496) translate(399.5555555555553 96.31555555555549)"/><use xlink:href="#p" transform="matrix(1,0,0,1,104,-2496) translate(509.7777777777775 96.31555555555549)"/><use xlink:href="#q" transform="matrix(1,0,0,1,104,-2496) translate(578.6666666666663 96.31555555555549)"/><use xlink:href="#m" transform="matrix(1,0,0,1,104,-2496) translate(633.7777777777774 96.31555555555549)"/><use xlink:href="#r" transform="matrix(1,0,0,1,104,-2496) translate(688.8888888888885 96.31555555555549)"/><use xlink:href="#s" transform="matrix(1,0,0,1,104,-2496) translate(0 124.27111111111103)"/><use xlink:href="#t" transform="matrix(1,0,0,1,104,-2496) translate(0 152.22666666666655)"/><use xlink:href="#u" transform="matrix(1,0,0,1,104,-2496) translate(55.111111111111065 152.22666666666655)"/><use xlink:href="#p" transform="matrix(1,0,0,1,104,-2496) translate(206.66666666666652 152.22666666666655)"/><use xlink:href="#v" transform="matrix(1,0,0,1,104,-2496) translate(275.5555555555553 152.22666666666655)"/><use xlink:href="#w" transform="matrix(1,0,0,1,104,-2496) translate(303.11111111111086 152.22666666666655)"/><use xlink:href="#x" transform="matrix(1,0,0,1,104,-2496) translate(371.99999999999966 152.22666666666655)"/><use xlink:href="#y" transform="matrix(1,0,0,1,104,-2496) translate(440.88888888888846 152.22666666666655)"/><use xlink:href="#z" transform="matrix(1,0,0,1,104,-2496) translate(482.2222222222218 152.22666666666655)"/><use xlink:href="#A" transform="matrix(1,0,0,1,104,-2496) translate(592.4444444444439 152.22666666666655)"/><use xlink:href="#B" transform="matrix(1,0,0,1,104,-2496) translate(0 180.18222222222207)"/><use xlink:href="#v" transform="matrix(1,0,0,1,104,-2496) translate(123.99999999999991 180.18222222222207)"/><use xlink:href="#C" transform="matrix(1,0,0,1,104,-2496) translate(151.55555555555546 180.18222222222207)"/><use xlink:href="#D" transform="matrix(1,0,0,1,104,-2496) translate(179.111111111111 180.18222222222207)"/><use xlink:href="#E" transform="matrix(1,0,0,1,104,-2496) translate(0 208.1377777777776)"/><use xlink:href="#v" transform="matrix(1,0,0,1,104,-2496) translate(137.7777777777777 208.1377777777776)"/><use xlink:href="#C" transform="matrix(1,0,0,1,104,-2496) translate(165.33333333333323 208.1377777777776)"/><use xlink:href="#F" transform="matrix(1,0,0,1,104,-2496) translate(192.88888888888877 208.1377777777776)"/><use xlink:href="#G" transform="matrix(1,0,0,1,104,-2496) translate(247.99999999999983 208.1377777777776)"/><use xlink:href="#H" transform="matrix(1,0,0,1,104,-2496) translate(303.1111111111109 208.1377777777776)"/><use xlink:href="#I" transform="matrix(1,0,0,1,104,-2496) translate(344.44444444444423 208.1377777777776)"/><use xlink:href="#J" transform="matrix(1,0,0,1,104,-2496) translate(482.22222222222194 208.1377777777776)"/><use xlink:href="#m" transform="matrix(1,0,0,1,104,-2496) translate(523.5555555555552 208.1377777777776)"/><use xlink:href="#K" transform="matrix(1,0,0,1,104,-2496) translate(578.6666666666663 208.1377777777776)"/><path d="M241-2139.88h827.13" stroke="#365e74" fill="none"/><path d="M241-2139.38h-.5v-1h.5z" stroke="#365e74" stroke-width=".05" fill="#365e74"/><path d="M1050.84-2129.7l17.2-10.18-17.2-10.18M294.33-1940h83.8a.04.04 0 0 0 .05-.04.04.04 0 0 1 .04-.04h83.4" stroke="#365e74" fill="none"/><path d="M294.35-1939.5h-.52v-1h.52z" stroke="#365e74" stroke-width=".05" fill="#365e74"/><path d="M444.33-1929.9l17.22-10.18-17.22-10.18M600-1835.75v130a6 6 0 0 1-6 6H294.74" stroke="#365e74" fill="none"/><path d="M600-1836.25l.5-.03v.54h-1v-.54z" stroke="#365e74" stroke-width=".05" fill="#365e74"/><path d="M312.03-1709.93l-17.2 10.18 17.2 10.18M738-1939.75h260.13" stroke="#365e74" fill="none"/><path d="M738-1939.25h-.54l.04-.5-.04-.5h.55z" stroke="#365e74" stroke-width=".05" fill="#365e74"/><path d="M980.84-1929.57l17.2-10.18-17.2-10.18M1300.54-1940h367.6" stroke="#365e74" fill="none"/><path d="M1300.55-1939.5h-.5v-1h.5z" stroke="#365e74" stroke-width=".05" fill="#365e74"/><path d="M1650.84-1929.82l17.2-10.18-17.2-10.18M1149.54-1859v77.84" stroke="#365e74" fill="none"/><path d="M1150.04-1859h-1v-.5h1z" stroke="#365e74" stroke-width=".05" fill="#365e74"/><path d="M1139.36-1798.45l10.18 17.22 10.18-17.22M1819.54-1859v77.84" stroke="#365e74" fill="none"/><path d="M1820.04-1859h-1v-.5h1z" stroke="#365e74" stroke-width=".05" fill="#365e74"/><path d="M1809.36-1798.45l10.18 17.22 10.18-17.22M1819.54-1538.75v77.84" stroke="#365e74" fill="none"/><path d="M1820.04-1538.74h-1v-.5h1z" stroke="#365e74" stroke-width=".05" fill="#365e74"/><path d="M1809.36-1478.2l10.18 17.2 10.18-17.2M1970.54-1940h457.6" stroke="#365e74" fill="none"/><path d="M1970.55-1939.5h-.5v-1h.5z" stroke="#365e74" stroke-width=".05" fill="#365e74"/><path d="M2410.84-1929.82l17.2-10.18-17.2-10.18M1970.54-1940h223a6 6 0 0 1 6 6v228.25a6 6 0 0 0 6 6h222.6" stroke="#365e74" fill="none"/><path d="M1970.55-1939.5h-.5v-1h.5z" stroke="#365e74" stroke-width=".05" fill="#365e74"/><path d="M2410.84-1689.57l17.2-10.18-17.2-10.18M2730.54-1699.75h97.6" stroke="#365e74" fill="none"/><path d="M2730.55-1699.25h-.5v-1h.5z" stroke="#365e74" stroke-width=".05" fill="#365e74"/><path d="M2810.84-1689.57l17.2-10.18-17.2-10.18M3130.54-1699.75h97.6" stroke="#365e74" fill="none"/><path d="M3130.55-1699.25h-.5v-1h.5z" stroke="#365e74" stroke-width=".05" fill="#365e74"/><path d="M3210.84-1689.57l17.2-10.18-17.2-10.18M1230.54-2139.88h507.6" stroke="#365e74" fill="none"/><path d="M1230.55-2139.38h-.5v-1h.5z" stroke="#365e74" stroke-width=".05" fill="#365e74"/><path d="M1720.84-2129.7l17.2-10.18-17.2-10.18M1900.54-2139.88h597.6" stroke="#365e74" fill="none"/><path d="M1900.55-2139.38h-.5v-1h.5z" stroke="#365e74" stroke-width=".05" fill="#365e74"/><path d="M2480.84-2129.7l17.2-10.18-17.2-10.18M2660.54-2139.88h637.6" stroke="#365e74" fill="none"/><path d="M2660.55-2139.38h-.5v-1h.5z" stroke="#365e74" stroke-width=".05" fill="#365e74"/><path d="M3280.84-2129.7l17.2-10.18-17.2-10.18" stroke="#365e74" fill="none"/><path d="M80-2174a6 6 0 0 1 6-6h148a6 6 0 0 1 6 6v68.25a6 6 0 0 1-6 6H86a6 6 0 0 1-6-6z" stroke="#282c33" fill="#d9d9d9"/><g><use xlink:href="#L" transform="matrix(1,0,0,1,85.0000000000382,-2175) translate(40.55555555555556 44.40972222222222)"/><use xlink:href="#M" transform="matrix(1,0,0,1,85.0000000000382,-2175) translate(95.66666666666667 44.40972222222222)"/></g><path d="M1069.54-2174a6 6 0 0 1 6-6h148a6 6 0 0 1 6 6v68.25a6 6 0 0 1-6 6h-148a6 6 0 0 1-6-6z" stroke="#282c33" fill="#d9d9d9"/><g><use xlink:href="#L" transform="matrix(1,0,0,1,1074.5364755659812,-2175) translate(40.55555555555556 44.40972222222222)"/><use xlink:href="#M" transform="matrix(1,0,0,1,1074.5364755659812,-2175) translate(95.66666666666667 44.40972222222222)"/></g><path d="M80-1773.75a6 6 0 0 1 6-6h201.33a6 6 0 0 1 6 6v148a6 6 0 0 1-6 6H86a6 6 0 0 1-6-6z" stroke="#313131" fill="#ff8f8f"/><g><use xlink:href="#N" transform="matrix(1,0,0,1,85,-1774.752380893041) translate(67.55555555555556 69.09722222222223)"/><use xlink:href="#O" transform="matrix(1,0,0,1,85,-1774.752380893041) translate(67.55555555555556 97.05277777777778)"/></g><path d="M80-2014a6 6 0 0 1 6-6h201.33a6 6 0 0 1 6 6v148a6 6 0 0 1-6 6H86a6 6 0 0 1-6-6z" stroke="#282c33" fill="#d9d9d9"/><g><use xlink:href="#P" transform="matrix(1,0,0,1,85,-2015.0000000000573) translate(33.111111111111114 69.09722222222223)"/><use xlink:href="#Q" transform="matrix(1,0,0,1,85,-2015.0000000000573) translate(88.22222222222223 69.09722222222223)"/><use xlink:href="#R" transform="matrix(1,0,0,1,85,-2015.0000000000573) translate(67.55555555555556 97.05277777777778)"/></g><path d="M595.2-2041.15a8 8 0 0 1 9.6 0l130.4 97.8a4.5 4.5 0 0 1 0 7.2l-130.4 97.8a8 8 0 0 1-9.6 0l-130.4-97.8a4.5 4.5 0 0 1 0-7.2z" stroke="#282c33" fill="#d9d9d9"/><g><use xlink:href="#S" transform="matrix(1,0,0,1,465.0000000000382,-2039.7523808930414) translate(66.11611111111114 90.97222222222223)"/><use xlink:href="#T" transform="matrix(1,0,0,1,465.0000000000382,-2039.7523808930414) translate(31.67166666666669 118.92777777777778)"/><use xlink:href="#U" transform="matrix(1,0,0,1,465.0000000000382,-2039.7523808930414) translate(141.89388888888888 118.92777777777778)"/></g><path d="M999.54-2014a6 6 0 0 1 6-6h288a6 6 0 0 1 6 6v148a6 6 0 0 1-6 6h-288a6 6 0 0 1-6-6z" stroke="#282c33" fill="#9ebfd1"/><g><use xlink:href="#V" transform="matrix(1,0,0,1,1004.5364755659812,-2015.0000000000573) translate(124.33333333333333 55.03472222222222)"/><use xlink:href="#W" transform="matrix(1,0,0,1,1004.5364755659812,-2015.0000000000573) translate(48.55555555555557 82.99027777777778)"/><use xlink:href="#X" transform="matrix(1,0,0,1,1004.5364755659812,-2015.0000000000573) translate(103.66666666666669 82.99027777777778)"/><use xlink:href="#Y" transform="matrix(1,0,0,1,1004.5364755659812,-2015.0000000000573) translate(41.666666666666686 110.94583333333333)"/><use xlink:href="#Z" transform="matrix(1,0,0,1,1004.5364755659812,-2015.0000000000573) translate(151.88888888888889 110.94583333333333)"/></g><path d="M1669.54-2014a6 6 0 0 1 6-6h288a6 6 0 0 1 6 6v148a6 6 0 0 1-6 6h-288a6 6 0 0 1-6-6z" stroke="#282c33" fill="#9ebfd1"/><g><use xlink:href="#V" transform="matrix(1,0,0,1,1674.5364755659814,-2015.0000000000573) translate(124.33333333333333 55.03472222222222)"/><use xlink:href="#W" transform="matrix(1,0,0,1,1674.5364755659814,-2015.0000000000573) translate(48.55555555555557 82.99027777777778)"/><use xlink:href="#X" transform="matrix(1,0,0,1,1674.5364755659814,-2015.0000000000573) translate(103.66666666666669 82.99027777777778)"/><use xlink:href="#Y" transform="matrix(1,0,0,1,1674.5364755659814,-2015.0000000000573) translate(21.00000000000003 110.94583333333333)"/><use xlink:href="#aa" transform="matrix(1,0,0,1,1674.5364755659814,-2015.0000000000573) translate(131.22222222222223 110.94583333333333)"/></g><path d="M2429.54-2014a6 6 0 0 1 6-6h288a6 6 0 0 1 6 6v148a6 6 0 0 1-6 6h-288a6 6 0 0 1-6-6z" stroke="#282c33" fill="#9ebfd1"/><g><use xlink:href="#V" transform="matrix(1,0,0,1,2434.536475565981,-2015.0000000000573) translate(124.33333333333333 55.03472222222222)"/><use xlink:href="#W" transform="matrix(1,0,0,1,2434.536475565981,-2015.0000000000573) translate(48.55555555555557 82.99027777777778)"/><use xlink:href="#X" transform="matrix(1,0,0,1,2434.536475565981,-2015.0000000000573) translate(103.66666666666669 82.99027777777778)"/><use xlink:href="#Y" transform="matrix(1,0,0,1,2434.536475565981,-2015.0000000000573) translate(62.33333333333334 110.94583333333333)"/><use xlink:href="#ab" transform="matrix(1,0,0,1,2434.536475565981,-2015.0000000000573) translate(172.55555555555554 110.94583333333333)"/></g><path d="M999.54-1773.75a6 6 0 0 1 6-6h288a6 6 0 0 1 6 6v228a6 6 0 0 1-6 6h-288a6 6 0 0 1-6-6z" stroke="#282c33" fill="#e1d5b9"/><g><use xlink:href="#ac" transform="matrix(1,0,0,1,1004.5364755659812,-1774.752380893041) translate(69.22222222222224 65.34722222222223)"/><use xlink:href="#ad" transform="matrix(1,0,0,1,1004.5364755659812,-1774.752380893041) translate(48.55555555555557 93.30277777777778)"/><use xlink:href="#ae" transform="matrix(1,0,0,1,1004.5364755659812,-1774.752380893041) translate(103.66666666666669 93.30277777777778)"/><use xlink:href="#af" transform="matrix(1,0,0,1,1004.5364755659812,-1774.752380893041) translate(21.00000000000003 121.25833333333333)"/><use xlink:href="#ag" transform="matrix(1,0,0,1,1004.5364755659812,-1774.752380893041) translate(131.22222222222223 121.25833333333333)"/><use xlink:href="#ah" transform="matrix(1,0,0,1,1004.5364755659812,-1774.752380893041) translate(76.11111111111111 149.21388888888887)"/><use xlink:href="#ai" transform="matrix(1,0,0,1,1004.5364755659812,-1774.752380893041) translate(158.77777777777777 149.21388888888887)"/><use xlink:href="#aj" transform="matrix(1,0,0,1,1004.5364755659812,-1774.752380893041) translate(69.22222222222223 177.16944444444442)"/><use xlink:href="#ak" transform="matrix(1,0,0,1,1004.5364755659812,-1774.752380893041) translate(179.44444444444443 177.16944444444442)"/></g><path d="M1669.54-1773.75a6 6 0 0 1 6-6h288a6 6 0 0 1 6 6v228a6 6 0 0 1-6 6h-288a6 6 0 0 1-6-6z" stroke="#282c33" fill="#e1d5b9"/><g><use xlink:href="#ac" transform="matrix(1,0,0,1,1674.5364755659814,-1774.752380893041) translate(69.22222222222224 65.34722222222223)"/><use xlink:href="#ad" transform="matrix(1,0,0,1,1674.5364755659814,-1774.752380893041) translate(48.55555555555557 93.30277777777778)"/><use xlink:href="#ae" transform="matrix(1,0,0,1,1674.5364755659814,-1774.752380893041) translate(103.66666666666669 93.30277777777778)"/><use xlink:href="#ah" transform="matrix(1,0,0,1,1674.5364755659814,-1774.752380893041) translate(21.00000000000003 121.25833333333333)"/><use xlink:href="#al" transform="matrix(1,0,0,1,1674.5364755659814,-1774.752380893041) translate(103.66666666666669 121.25833333333333)"/><use xlink:href="#af" transform="matrix(1,0,0,1,1674.5364755659814,-1774.752380893041) translate(21.00000000000003 149.21388888888887)"/><use xlink:href="#ag" transform="matrix(1,0,0,1,1674.5364755659814,-1774.752380893041) translate(131.22222222222223 149.21388888888887)"/><use xlink:href="#aj" transform="matrix(1,0,0,1,1674.5364755659814,-1774.752380893041) translate(69.22222222222223 177.16944444444442)"/><use xlink:href="#ak" transform="matrix(1,0,0,1,1674.5364755659814,-1774.752380893041) translate(179.44444444444443 177.16944444444442)"/></g><path d="M1669.54-1453.5a6 6 0 0 1 6-6h288a6 6 0 0 1 6 6v228a6 6 0 0 1-6 6h-288a6 6 0 0 1-6-6z" stroke="#282c33" fill="#e1d5b9"/><g><use xlink:href="#ac" transform="matrix(1,0,0,1,1674.5364755659814,-1454.5047617860246) translate(69.22222222222224 65.34722222222223)"/><use xlink:href="#ad" transform="matrix(1,0,0,1,1674.5364755659814,-1454.5047617860246) translate(48.55555555555557 93.30277777777778)"/><use xlink:href="#ae" transform="matrix(1,0,0,1,1674.5364755659814,-1454.5047617860246) translate(103.66666666666669 93.30277777777778)"/><use xlink:href="#af" transform="matrix(1,0,0,1,1674.5364755659814,-1454.5047617860246) translate(21.00000000000003 121.25833333333333)"/><use xlink:href="#ag" transform="matrix(1,0,0,1,1674.5364755659814,-1454.5047617860246) translate(131.22222222222223 121.25833333333333)"/><use xlink:href="#ah" transform="matrix(1,0,0,1,1674.5364755659814,-1454.5047617860246) translate(34.7777777777778 149.21388888888887)"/><use xlink:href="#am" transform="matrix(1,0,0,1,1674.5364755659814,-1454.5047617860246) translate(117.44444444444446 149.21388888888887)"/><use xlink:href="#aj" transform="matrix(1,0,0,1,1674.5364755659814,-1454.5047617860246) translate(69.22222222222223 177.16944444444442)"/><use xlink:href="#ak" transform="matrix(1,0,0,1,1674.5364755659814,-1454.5047617860246) translate(179.44444444444443 177.16944444444442)"/></g><path d="M2429.54-1773.75a6 6 0 0 1 6-6h288a6 6 0 0 1 6 6v148a6 6 0 0 1-6 6h-288a6 6 0 0 1-6-6z" stroke="#282c33" fill="#d8e6e9"/><g><use xlink:href="#an" transform="matrix(1,0,0,1,2434.536475565981,-1774.752380893041) translate(21 69.09722222222223)"/><use xlink:href="#ao" transform="matrix(1,0,0,1,2434.536475565981,-1774.752380893041) translate(103.66666666666666 69.09722222222223)"/><use xlink:href="#ap" transform="matrix(1,0,0,1,2434.536475565981,-1774.752380893041) translate(172.55555555555554 69.09722222222223)"/><use xlink:href="#aq" transform="matrix(1,0,0,1,2434.536475565981,-1774.752380893041) translate(241.44444444444443 69.09722222222223)"/><use xlink:href="#ar" transform="matrix(1,0,0,1,2434.536475565981,-1774.752380893041) translate(14.111111111111143 97.05277777777778)"/><use xlink:href="#as" transform="matrix(1,0,0,1,2434.536475565981,-1774.752380893041) translate(83.00000000000003 97.05277777777778)"/><use xlink:href="#at" transform="matrix(1,0,0,1,2434.536475565981,-1774.752380893041) translate(138.11111111111114 97.05277777777778)"/></g><path d="M2829.54-1773.75a6 6 0 0 1 6-6h288a6 6 0 0 1 6 6v148a6 6 0 0 1-6 6h-288a6 6 0 0 1-6-6z" stroke="#282c33" fill="#d8e6e9"/><g><use xlink:href="#an" transform="matrix(1,0,0,1,2834.536475565981,-1774.752380893041) translate(14.111111111111143 69.09722222222223)"/><use xlink:href="#ao" transform="matrix(1,0,0,1,2834.536475565981,-1774.752380893041) translate(96.7777777777778 69.09722222222223)"/><use xlink:href="#au" transform="matrix(1,0,0,1,2834.536475565981,-1774.752380893041) translate(165.66666666666669 69.09722222222223)"/><use xlink:href="#av" transform="matrix(1,0,0,1,2834.536475565981,-1774.752380893041) translate(96.77777777777777 97.05277777777778)"/><use xlink:href="#aw" transform="matrix(1,0,0,1,2834.536475565981,-1774.752380893041) translate(138.11111111111111 97.05277777777778)"/></g><path d="M3229.54-1773.75a6 6 0 0 1 6-6h288a6 6 0 0 1 6 6v148a6 6 0 0 1-6 6h-288a6 6 0 0 1-6-6z" stroke="#282c33" fill="#d8e6e9"/><g><use xlink:href="#ax" transform="matrix(1,0,0,1,3234.536475565981,-1774.752380893041) translate(7.2222222222222285 69.09722222222223)"/><use xlink:href="#ay" transform="matrix(1,0,0,1,3234.536475565981,-1774.752380893041) translate(89.88888888888889 69.09722222222223)"/><use xlink:href="#az" transform="matrix(1,0,0,1,3234.536475565981,-1774.752380893041) translate(227.66666666666663 69.09722222222223)"/><use xlink:href="#aA" transform="matrix(1,0,0,1,3234.536475565981,-1774.752380893041) translate(21.00000000000003 97.05277777777778)"/><use xlink:href="#aB" transform="matrix(1,0,0,1,3234.536475565981,-1774.752380893041) translate(172.55555555555554 97.05277777777778)"/></g><path d="M1739.54-2174a6 6 0 0 1 6-6h148a6 6 0 0 1 6 6v68.25a6 6 0 0 1-6 6h-148a6 6 0 0 1-6-6z" stroke="#282c33" fill="#d9d9d9"/><g><use xlink:href="#L" transform="matrix(1,0,0,1,1744.5364755659814,-2175) translate(40.55555555555556 44.40972222222222)"/><use xlink:href="#M" transform="matrix(1,0,0,1,1744.5364755659814,-2175) translate(95.66666666666667 44.40972222222222)"/></g><path d="M2499.54-2174a6 6 0 0 1 6-6h148a6 6 0 0 1 6 6v68.25a6 6 0 0 1-6 6h-148a6 6 0 0 1-6-6z" stroke="#282c33" fill="#d9d9d9"/><g><use xlink:href="#L" transform="matrix(1,0,0,1,2504.536475565981,-2175) translate(40.55555555555556 44.40972222222222)"/><use xlink:href="#M" transform="matrix(1,0,0,1,2504.536475565981,-2175) translate(95.66666666666667 44.40972222222222)"/></g><path d="M3299.54-2174a6 6 0 0 1 6-6h148a6 6 0 0 1 6 6v68.25a6 6 0 0 1-6 6h-148a6 6 0 0 1-6-6z" stroke="#282c33" fill="#d9d9d9"/><g><use xlink:href="#L" transform="matrix(1,0,0,1,3304.536475565981,-2175) translate(13 44.40972222222222)"/><use xlink:href="#aC" transform="matrix(1,0,0,1,3304.536475565981,-2175) translate(68.11111111111111 44.40972222222222)"/><use xlink:href="#aD" transform="matrix(1,0,0,1,3304.536475565981,-2175) translate(95.66666666666667 44.40972222222222)"/><use xlink:href="#aE" transform="matrix(1,0,0,1,3304.536475565981,-2175) translate(123.22222222222223 44.40972222222222)"/></g><path d="M420-1743.75a6 6 0 0 1 6-6h88a6 6 0 0 1 6 6v88a6 6 0 0 1-6 6h-88a6 6 0 0 1-6-6z" stroke="#365e74" fill="#fff"/><g><use xlink:href="#aF" transform="matrix(1,0,0,1,440.0000000000382,-1729.7523808930414) translate(16.22222222222222 37.222222222222214)"/></g><path d="M1420-1987.33a6 6 0 0 1 6-6h125.42a6 6 0 0 1 6 6v88a6 6 0 0 1-6 6H1426a6 6 0 0 1-6-6z" stroke="#365e74" fill="#fff"/><g><use xlink:href="#aG" transform="matrix(1,0,0,1,1440.0000000000382,-1973.3333333334303) translate(7.666666666666671 25.972222222222218)"/><use xlink:href="#aH" transform="matrix(1,0,0,1,1440.0000000000382,-1973.3333333334303) translate(7.666666666666671 53.92777777777776)"/></g><path d="M2130.83-1987.33a6 6 0 0 1 6-6h125.4a6 6 0 0 1 6 6v88a6 6 0 0 1-6 6h-125.4a6 6 0 0 1-6-6z" stroke="#365e74" fill="#fff"/><g><use xlink:href="#aG" transform="matrix(1,0,0,1,2150.8274535612654,-1973.33333333343) translate(7.666666666666671 25.972222222222218)"/><use xlink:href="#aH" transform="matrix(1,0,0,1,2150.8274535612654,-1973.33333333343) translate(7.666666666666671 53.92777777777776)"/></g><path d="M819.77-1983.75a6 6 0 0 1 6-6h88a6 6 0 0 1 6 6v88a6 6 0 0 1-6 6h-88a6 6 0 0 1-6-6z" stroke="#365e74" fill="#fff"/><g><use xlink:href="#aI" transform="matrix(1,0,0,1,839.7682377830097,-1969.7523808930414) translate(9.333333333333336 37.222222222222214)"/></g><defs><path fill="#fff" d="M446 0l-38-154H213L174 0H20l198-710h184L600 0H446zM312-585h-4c-13 91-34 184-66 312h136c-33-128-53-221-66-312" id="aJ"/><path fill="#fff" d="M312 17C128 17 41-109 41-305v-100c0-196 87-322 274-322 156 0 260 84 267 264l-158 25c-3-108-44-161-109-161-80 0-114 68-114 195v94c0 127 34 199 114 199 66 0 107-52 109-161l158 28C577-83 476 17 312 17" id="aK"/><path fill="#fff" d="M558-710V0H401v-300H219V0H62v-710h157v289h182v-289h157" id="aL"/><g id="a"><use transform="matrix(0.031111111111111096,0,0,0.031111111111111096,0,0)" xlink:href="#aJ"/><use transform="matrix(0.031111111111111096,0,0,0.031111111111111096,19.28888888888888,0)" xlink:href="#aK"/><use transform="matrix(0.031111111111111096,0,0,0.031111111111111096,38.57777777777776,0)" xlink:href="#aL"/></g><path fill="#fff" d="M251-356c35-125 168-184 304-143v136c-145-37-302 0-299 188V0H101v-500h150v144" id="aM"/><path fill="#fff" d="M309-512c170 0 251 121 235 296H215c0 65 41 113 106 113 47 0 79-26 102-68l119 54C500-36 419 12 320 12 149 12 60-90 60-250s97-262 249-262zm81 212c1-68-26-111-85-111s-92 48-92 111h177" id="aN"/><path fill="#fff" d="M383-725h154V0H391v-88C369-34 322 12 238 12 120 12 42-91 42-248s77-264 207-264c66 0 113 35 134 81v-294zm2 496c0-91-24-174-89-172-65 0-95 58-95 150 0 93 34 152 92 152 56 0 92-53 92-130" id="aO"/><path fill="#fff" d="M406-723v158H230v-158h176zM99 0v-112h151v-276H114v-112h290v388h158V0H99" id="aP"/><path fill="#fff" d="M67-390v-110h130v-123l154-59v182h175v110H351v186c0 53 38 81 100 81 31 0 54-1 75-5V-4C499 1 461 7 408 7 271 7 197-52 197-179v-211H67" id="aQ"/><g id="b"><use transform="matrix(0.031111111111111096,0,0,0.031111111111111096,0,0)" xlink:href="#aK"/><use transform="matrix(0.031111111111111096,0,0,0.031111111111111096,19.28888888888888,0)" xlink:href="#aM"/><use transform="matrix(0.031111111111111096,0,0,0.031111111111111096,38.57777777777776,0)" xlink:href="#aN"/><use transform="matrix(0.031111111111111096,0,0,0.031111111111111096,57.866666666666646,0)" xlink:href="#aO"/><use transform="matrix(0.031111111111111096,0,0,0.031111111111111096,77.15555555555552,0)" xlink:href="#aP"/><use transform="matrix(0.031111111111111096,0,0,0.031111111111111096,96.4444444444444,0)" xlink:href="#aQ"/></g><path fill="#fff" d="M39-710h540v80H356V0h-94v-630H39v-80" id="aR"/><path fill="#fff" d="M345-512c107 4 172 65 172 203V0h-85v-304c0-109-55-133-108-133-109 0-136 105-136 176V0h-85v-725h85v316c23-60 85-103 157-103" id="aS"/><path fill="#fff" d="M308-512c166 1 222 128 210 284H167c0 94 54 165 147 165 66 0 107-41 132-89l72 38C476-31 408 12 314 12 157 12 80-96 80-260c0-153 88-252 228-252zm124 214c2-80-38-148-128-148-91 0-137 75-137 148h265" id="aT"/><g id="c"><use transform="matrix(0.022222222222222202,0,0,0.022222222222222202,0,0)" xlink:href="#aR"/><use transform="matrix(0.022222222222222202,0,0,0.022222222222222202,13.777777777777766,0)" xlink:href="#aS"/><use transform="matrix(0.022222222222222202,0,0,0.022222222222222202,27.555555555555532,0)" xlink:href="#aT"/></g><path fill="#fff" d="M519-500v69H329V0h-85v-431H91v-69h153c-12-148 42-229 188-228 29 0 53 3 87 10v75c-22-3-49-8-87-8-96-7-108 55-103 151h190" id="aU"/><path fill="#fff" d="M310 12C170 12 77-93 77-250c0-159 93-262 233-262s233 103 233 262S450 12 310 12zm0-74c90 0 143-70 143-188 0-117-53-188-143-188s-143 70-143 188S220-62 310-62" id="aV"/><path fill="#fff" d="M125 0v-70h160v-585H135v-70h235v655h169V0H125" id="aW"/><path fill="#fff" d="M28-500h89c20 138 41 275 61 414h7c25-132 55-280 81-414h87c26 134 56 281 81 414h7c20-139 41-276 61-414h89L494 0H387c-24-136-60-259-74-405h-7c-14 146-50 269-74 405H125" id="aX"/><path fill="#fff" d="M379-720v120H259v-120h120zM125 0v-70h160v-360H140v-70h230v430h169V0H125" id="aY"/><path fill="#fff" d="M348-512c108 3 169 66 169 203V0h-85v-304c0-109-54-133-104-133-113 0-140 105-140 176V0h-85v-500h80v99c26-63 81-111 165-111" id="aZ"/><path fill="#fff" d="M560-504c-53-11-94-1-111 44 29 29 45 69 45 116 0 102-76 171-188 171-35 0-67-7-93-20-57 29-45 100 48 100h129c104 0 163 51 163 136 0 105-91 164-247 164-142 0-227-49-227-127 0-54 34-94 87-112-41-17-63-47-63-89 0-46 26-80 72-97-32-29-50-71-50-121 0-102 75-173 186-173 37 0 69 8 96 22 20-68 75-104 153-88v74zM307-238c62 0 107-45 107-106 0-60-43-103-104-103-62 0-105 44-105 106 0 61 42 103 102 103zM216-20c-33 15-53 42-53 76 0 53 49 81 152 81 107 0 153-30 153-85 7-98-164-62-252-72" id="ba"/><g id="d"><use transform="matrix(0.022222222222222202,0,0,0.022222222222222202,0,0)" xlink:href="#aU"/><use transform="matrix(0.022222222222222202,0,0,0.022222222222222202,13.777777777777766,0)" xlink:href="#aV"/><use transform="matrix(0.022222222222222202,0,0,0.022222222222222202,27.555555555555532,0)" xlink:href="#aW"/><use transform="matrix(0.022222222222222202,0,0,0.022222222222222202,41.3333333333333,0)" xlink:href="#aW"/><use transform="matrix(0.022222222222222202,0,0,0.022222222222222202,55.111111111111065,0)" xlink:href="#aV"/><use transform="matrix(0.022222222222222202,0,0,0.022222222222222202,68.88888888888883,0)" xlink:href="#aX"/><use transform="matrix(0.022222222222222202,0,0,0.022222222222222202,82.6666666666666,0)" xlink:href="#aY"/><use transform="matrix(0.022222222222222202,0,0,0.022222222222222202,96.44444444444437,0)" xlink:href="#aZ"/><use transform="matrix(0.022222222222222202,0,0,0.022222222222222202,110.22222222222214,0)" xlink:href="#ba"/></g><path fill="#fff" d="M224-370c40-103 170-170 310-132v79c-172-40-307 36-309 237V0h-85v-500h84v130" id="bb"/><path fill="#fff" d="M192-500v93c26-55 86-105 157-105 131 0 208 109 208 261 0 156-80 263-213 263-62 0-124-38-147-91v274h-85v-695h80zm3 237c0 117 44 201 135 200 87 0 137-74 137-188 0-111-46-186-134-186-84 0-138 67-138 174" id="bc"/><path fill="#fff" d="M321 12c-118 0-198-55-215-154l86-15c12 63 59 99 132 99 67 0 104-33 104-76 3-81-105-73-170-88-84-19-133-64-133-140 0-86 72-150 190-150 112 0 188 51 198 135l-84 19c-11-50-50-85-118-85-64 0-103 28-103 77-4 77 109 75 174 89 89 19 130 63 130 136 0 90-69 153-191 153" id="bd"/><path fill="#fff" d="M88-431v-69h143v-131l85-36v167h195v69H316v259c0 67 32 99 96 99 33 0 68-3 99-9v78c-26 6-54 13-98 13-125 0-182-70-182-169v-271H88" id="be"/><g id="e"><use transform="matrix(0.022222222222222202,0,0,0.022222222222222202,0,0)" xlink:href="#bb"/><use transform="matrix(0.022222222222222202,0,0,0.022222222222222202,13.777777777777766,0)" xlink:href="#aT"/><use transform="matrix(0.022222222222222202,0,0,0.022222222222222202,27.555555555555532,0)" xlink:href="#bc"/><use transform="matrix(0.022222222222222202,0,0,0.022222222222222202,41.3333333333333,0)" xlink:href="#bb"/><use transform="matrix(0.022222222222222202,0,0,0.022222222222222202,55.111111111111065,0)" xlink:href="#aT"/><use transform="matrix(0.022222222222222202,0,0,0.022222222222222202,68.88888888888883,0)" xlink:href="#bd"/><use transform="matrix(0.022222222222222202,0,0,0.022222222222222202,82.6666666666666,0)" xlink:href="#aT"/><use transform="matrix(0.022222222222222202,0,0,0.022222222222222202,96.44444444444437,0)" xlink:href="#aZ"/><use transform="matrix(0.022222222222222202,0,0,0.022222222222222202,110.22222222222214,0)" xlink:href="#be"/><use transform="matrix(0.022222222222222202,0,0,0.022222222222222202,123.99999999999991,0)" xlink:href="#bd"/></g><path fill="#fff" d="M499-304c1 95-5 248 17 304h-89c-4-28-7-61-8-91-33 70-87 103-169 103-99 0-168-61-168-147 0-52 25-90 70-118 40-25 177-43 261-52 2-93-30-138-107-137-71 0-113 36-117 99H98c9-107 87-169 214-169 129 0 187 64 187 208zm-85 61l-119 16c-87 12-123 37-123 87 0 51 35 82 94 82 98 0 156-72 148-185" id="bf"/><g id="f"><use transform="matrix(0.022222222222222202,0,0,0.022222222222222202,0,0)" xlink:href="#bf"/><use transform="matrix(0.022222222222222202,0,0,0.022222222222222202,13.777777777777766,0)" xlink:href="#aZ"/></g><path fill="#fff" d="M499 0l-66-205H186L121 0H29l228-710h106L591 0h-92zM309-628c-19 84-53 202-98 343h197c-46-141-76-262-99-343" id="bg"/><path fill="#fff" d="M307 17C122 21 54-143 54-381c0-217 91-346 261-346 148 0 232 81 250 250l-93 15c-8-116-60-185-158-185-111 0-164 81-164 261v51c0 180 57 272 164 272 99 0 150-69 158-186l92 19C549-90 471 17 307 17" id="bh"/><path fill="#fff" d="M539-710V0h-93v-324H174V0H81v-710h93v308h272v-308h93" id="bi"/><g id="g"><use transform="matrix(0.022222222222222202,0,0,0.022222222222222202,0,0)" xlink:href="#bg"/><use transform="matrix(0.022222222222222202,0,0,0.022222222222222202,13.777777777777766,0)" xlink:href="#bh"/><use transform="matrix(0.022222222222222202,0,0,0.022222222222222202,27.555555555555532,0)" xlink:href="#bi"/></g><path fill="#fff" d="M310 12C158 12 80-103 80-253c0-149 76-259 233-259 111 0 191 64 203 179l-87 10c-9-74-51-115-122-115-92 0-139 74-139 184 0 114 47 191 142 191 73 0 112-44 124-120l81 13C499-68 434 12 310 12" id="bj"/><path fill="#fff" d="M418-725h85V0h-80v-93C393-28 346 12 264 12 139 12 58-92 58-251c0-157 87-261 219-261 68 0 116 37 141 86v-299zm2 486c0-118-45-199-135-198-86 0-137 69-137 186 0 116 51 188 134 188 85 0 138-68 138-176" id="bk"/><g id="h"><use transform="matrix(0.022222222222222202,0,0,0.022222222222222202,0,0)" xlink:href="#bj"/><use transform="matrix(0.022222222222222202,0,0,0.022222222222222202,13.777777777777766,0)" xlink:href="#bb"/><use transform="matrix(0.022222222222222202,0,0,0.022222222222222202,27.555555555555532,0)" xlink:href="#aT"/><use transform="matrix(0.022222222222222202,0,0,0.022222222222222202,41.3333333333333,0)" xlink:href="#bk"/><use transform="matrix(0.022222222222222202,0,0,0.022222222222222202,55.111111111111065,0)" xlink:href="#aY"/><use transform="matrix(0.022222222222222202,0,0,0.022222222222222202,68.88888888888883,0)" xlink:href="#be"/></g><g id="i"><use transform="matrix(0.022222222222222202,0,0,0.022222222222222202,0,0)" xlink:href="#be"/><use transform="matrix(0.022222222222222202,0,0,0.022222222222222202,13.777777777777766,0)" xlink:href="#bb"/><use transform="matrix(0.022222222222222202,0,0,0.022222222222222202,27.555555555555532,0)" xlink:href="#bf"/><use transform="matrix(0.022222222222222202,0,0,0.022222222222222202,41.3333333333333,0)" xlink:href="#aZ"/><use transform="matrix(0.022222222222222202,0,0,0.022222222222222202,55.111111111111065,0)" xlink:href="#bd"/><use transform="matrix(0.022222222222222202,0,0,0.022222222222222202,68.88888888888883,0)" xlink:href="#aU"/><use transform="matrix(0.022222222222222202,0,0,0.022222222222222202,82.6666666666666,0)" xlink:href="#aT"/><use transform="matrix(0.022222222222222202,0,0,0.022222222222222202,96.44444444444437,0)" xlink:href="#bb"/></g><path fill="#fff" d="M275 12C162 9 101-50 101-191v-309h87v306c0 109 52 133 104 133 105 0 130-105 130-178v-261h85V0h-80v-95C408-45 349 12 275 12" id="bl"/><path fill="#fff" d="M197-725v312c27-58 87-99 154-99 129 0 206 109 206 261 0 156-79 263-209 263-67 0-129-37-156-98L177 0h-65v-725h85zm-2 463c0 116 41 200 133 199 87 0 139-74 139-188 0-111-49-186-137-186-85 0-135 67-135 175" id="bm"/><path fill="#fff" d="M125-423c20-54 59-89 109-89 49 0 87 33 104 91 50-133 236-127 236 58V0h-85v-356c0-64-30-81-59-81-59 0-80 43-80 106V0h-83v-356c0-61-27-81-59-81-58 0-78 46-78 106V0H45v-500h80v77" id="bn"/><g id="j"><use transform="matrix(0.022222222222222202,0,0,0.022222222222222202,0,0)" xlink:href="#bd"/><use transform="matrix(0.022222222222222202,0,0,0.022222222222222202,13.777777777777766,0)" xlink:href="#bl"/><use transform="matrix(0.022222222222222202,0,0,0.022222222222222202,27.555555555555532,0)" xlink:href="#bm"/><use transform="matrix(0.022222222222222202,0,0,0.022222222222222202,41.3333333333333,0)" xlink:href="#bn"/><use transform="matrix(0.022222222222222202,0,0,0.022222222222222202,55.111111111111065,0)" xlink:href="#aY"/><use transform="matrix(0.022222222222222202,0,0,0.022222222222222202,68.88888888888883,0)" xlink:href="#be"/><use transform="matrix(0.022222222222222202,0,0,0.022222222222222202,82.6666666666666,0)" xlink:href="#be"/><use transform="matrix(0.022222222222222202,0,0,0.022222222222222202,96.44444444444437,0)" xlink:href="#aT"/><use transform="matrix(0.022222222222222202,0,0,0.022222222222222202,110.22222222222214,0)" xlink:href="#bk"/></g><g id="k"><use transform="matrix(0.022222222222222202,0,0,0.022222222222222202,0,0)" xlink:href="#bc"/><use transform="matrix(0.022222222222222202,0,0,0.022222222222222202,13.777777777777766,0)" xlink:href="#bb"/><use transform="matrix(0.022222222222222202,0,0,0.022222222222222202,27.555555555555532,0)" xlink:href="#aY"/><use transform="matrix(0.022222222222222202,0,0,0.022222222222222202,41.3333333333333,0)" xlink:href="#aV"/><use transform="matrix(0.022222222222222202,0,0,0.022222222222222202,55.111111111111065,0)" xlink:href="#bb"/></g><g id="l"><use transform="matrix(0.022222222222222202,0,0,0.022222222222222202,0,0)" xlink:href="#be"/><use transform="matrix(0.022222222222222202,0,0,0.022222222222222202,13.777777777777766,0)" xlink:href="#aV"/></g><g id="m"><use transform="matrix(0.022222222222222202,0,0,0.022222222222222202,0,0)" xlink:href="#be"/><use transform="matrix(0.022222222222222202,0,0,0.022222222222222202,13.777777777777766,0)" xlink:href="#aS"/><use transform="matrix(0.022222222222222202,0,0,0.022222222222222202,27.555555555555532,0)" xlink:href="#aT"/></g><g id="n"><use transform="matrix(0.022222222222222202,0,0,0.022222222222222202,0,0)" xlink:href="#aU"/><use transform="matrix(0.022222222222222202,0,0,0.022222222222222202,13.777777777777766,0)" xlink:href="#aY"/><use transform="matrix(0.022222222222222202,0,0,0.022222222222222202,27.555555555555532,0)" xlink:href="#aZ"/><use transform="matrix(0.022222222222222202,0,0,0.022222222222222202,41.3333333333333,0)" xlink:href="#bf"/><use transform="matrix(0.022222222222222202,0,0,0.022222222222222202,55.111111111111065,0)" xlink:href="#aW"/></g><path fill="#fff" d="M165-318h289v80H165v-80" id="bo"/><g id="o"><use transform="matrix(0.022222222222222202,0,0,0.022222222222222202,0,0)" xlink:href="#bj"/><use transform="matrix(0.022222222222222202,0,0,0.022222222222222202,13.777777777777766,0)" xlink:href="#bl"/><use transform="matrix(0.022222222222222202,0,0,0.022222222222222202,27.555555555555532,0)" xlink:href="#be"/><use transform="matrix(0.022222222222222202,0,0,0.022222222222222202,41.3333333333333,0)" xlink:href="#bo"/><use transform="matrix(0.022222222222222202,0,0,0.022222222222222202,55.111111111111065,0)" xlink:href="#aV"/><use transform="matrix(0.022222222222222202,0,0,0.022222222222222202,68.88888888888883,0)" xlink:href="#aU"/><use transform="matrix(0.022222222222222202,0,0,0.022222222222222202,82.6666666666666,0)" xlink:href="#aU"/></g><g id="p"><use transform="matrix(0.022222222222222202,0,0,0.022222222222222202,0,0)" xlink:href="#be"/><use transform="matrix(0.022222222222222202,0,0,0.022222222222222202,13.777777777777766,0)" xlink:href="#aY"/><use transform="matrix(0.022222222222222202,0,0,0.022222222222222202,27.555555555555532,0)" xlink:href="#bn"/><use transform="matrix(0.022222222222222202,0,0,0.022222222222222202,41.3333333333333,0)" xlink:href="#aT"/></g><g id="q"><use transform="matrix(0.022222222222222202,0,0,0.022222222222222202,0,0)" xlink:href="#aU"/><use transform="matrix(0.022222222222222202,0,0,0.022222222222222202,13.777777777777766,0)" xlink:href="#aV"/><use transform="matrix(0.022222222222222202,0,0,0.022222222222222202,27.555555555555532,0)" xlink:href="#bb"/></g><path fill="#fff" d="M177-500L318-99l139-401h91L348 32c-57 144-112 182-236 166v-75C213 143 251 82 276-6L81-500h96" id="bp"/><path fill="#fff" d="M376-128V0H243v-128h133" id="bq"/><g id="r"><use transform="matrix(0.022222222222222202,0,0,0.022222222222222202,0,0)" xlink:href="#bk"/><use transform="matrix(0.022222222222222202,0,0,0.022222222222222202,13.777777777777766,0)" xlink:href="#bf"/><use transform="matrix(0.022222222222222202,0,0,0.022222222222222202,27.555555555555532,0)" xlink:href="#bp"/><use transform="matrix(0.022222222222222202,0,0,0.022222222222222202,41.3333333333333,0)" xlink:href="#bq"/></g><g id="t"><use transform="matrix(0.022222222222222202,0,0,0.022222222222222202,0,0)" xlink:href="#aR"/><use transform="matrix(0.022222222222222202,0,0,0.022222222222222202,13.777777777777766,0)" xlink:href="#aS"/><use transform="matrix(0.022222222222222202,0,0,0.022222222222222202,27.555555555555532,0)" xlink:href="#aT"/></g><path fill="#fff" d="M318 17C147 17 72-87 55-204l90-18c16 85 64 161 172 161 67 0 145-23 145-113-5-138-114-126-210-156-99-31-175-87-175-197 0-105 88-200 226-200 130 0 235 54 249 199l-89 26c-9-112-81-147-157-147-104 0-134 61-134 114-1 100 113 122 200 144 95 24 185 67 185 204 0 100-70 204-239 204" id="br"/><g id="u"><use transform="matrix(0.022222222222222202,0,0,0.022222222222222202,0,0)" xlink:href="#br"/><use transform="matrix(0.022222222222222202,0,0,0.022222222222222202,13.777777777777766,0)" xlink:href="#aT"/><use transform="matrix(0.022222222222222202,0,0,0.022222222222222202,27.555555555555532,0)" xlink:href="#be"/><use transform="matrix(0.022222222222222202,0,0,0.022222222222222202,41.3333333333333,0)" xlink:href="#be"/><use transform="matrix(0.022222222222222202,0,0,0.022222222222222202,55.111111111111065,0)" xlink:href="#aW"/><use transform="matrix(0.022222222222222202,0,0,0.022222222222222202,68.88888888888883,0)" xlink:href="#aT"/><use transform="matrix(0.022222222222222202,0,0,0.022222222222222202,82.6666666666666,0)" xlink:href="#bn"/><use transform="matrix(0.022222222222222202,0,0,0.022222222222222202,96.44444444444437,0)" xlink:href="#aT"/><use transform="matrix(0.022222222222222202,0,0,0.022222222222222202,110.22222222222214,0)" xlink:href="#aZ"/><use transform="matrix(0.022222222222222202,0,0,0.022222222222222202,123.99999999999991,0)" xlink:href="#be"/></g><use transform="matrix(0.022222222222222202,0,0,0.022222222222222202,0,0)" xlink:href="#aR" id="v"/><g id="w"><use transform="matrix(0.022222222222222202,0,0,0.022222222222222202,0,0)" xlink:href="#aX"/><use transform="matrix(0.022222222222222202,0,0,0.022222222222222202,13.777777777777766,0)" xlink:href="#aY"/><use transform="matrix(0.022222222222222202,0,0,0.022222222222222202,27.555555555555532,0)" xlink:href="#aW"/><use transform="matrix(0.022222222222222202,0,0,0.022222222222222202,41.3333333333333,0)" xlink:href="#aW"/></g><path fill="#fff" d="M263 0L63-500h89c52 138 107 273 156 413h4c44-144 106-275 157-413h87L355 0h-92" id="bs"/><g id="x"><use transform="matrix(0.022222222222222202,0,0,0.022222222222222202,0,0)" xlink:href="#bs"/><use transform="matrix(0.022222222222222202,0,0,0.022222222222222202,13.777777777777766,0)" xlink:href="#bf"/><use transform="matrix(0.022222222222222202,0,0,0.022222222222222202,27.555555555555532,0)" xlink:href="#bb"/><use transform="matrix(0.022222222222222202,0,0,0.022222222222222202,41.3333333333333,0)" xlink:href="#bp"/></g><g id="y"><use transform="matrix(0.022222222222222202,0,0,0.022222222222222202,0,0)" xlink:href="#bm"/><use transform="matrix(0.022222222222222202,0,0,0.022222222222222202,13.777777777777766,0)" xlink:href="#bp"/></g><g id="z"><use transform="matrix(0.022222222222222202,0,0,0.022222222222222202,0,0)" xlink:href="#bd"/><use transform="matrix(0.022222222222222202,0,0,0.022222222222222202,13.777777777777766,0)" xlink:href="#aT"/><use transform="matrix(0.022222222222222202,0,0,0.022222222222222202,27.555555555555532,0)" xlink:href="#bb"/><use transform="matrix(0.022222222222222202,0,0,0.022222222222222202,41.3333333333333,0)" xlink:href="#bs"/><use transform="matrix(0.022222222222222202,0,0,0.022222222222222202,55.111111111111065,0)" xlink:href="#aY"/><use transform="matrix(0.022222222222222202,0,0,0.022222222222222202,68.88888888888883,0)" xlink:href="#bj"/><use transform="matrix(0.022222222222222202,0,0,0.022222222222222202,82.6666666666666,0)" xlink:href="#aT"/></g><g id="A"><use transform="matrix(0.022222222222222202,0,0,0.022222222222222202,0,0)" xlink:href="#aW"/><use transform="matrix(0.022222222222222202,0,0,0.022222222222222202,13.777777777777766,0)" xlink:href="#aT"/><use transform="matrix(0.022222222222222202,0,0,0.022222222222222202,27.555555555555532,0)" xlink:href="#bs"/><use transform="matrix(0.022222222222222202,0,0,0.022222222222222202,41.3333333333333,0)" xlink:href="#aT"/><use transform="matrix(0.022222222222222202,0,0,0.022222222222222202,55.111111111111065,0)" xlink:href="#aW"/><use transform="matrix(0.022222222222222202,0,0,0.022222222222222202,68.88888888888883,0)" xlink:href="#bq"/></g><path fill="#fff" d="M299 17C144 17 55-90 47-203l92-18c12 78 62 160 170 160 90 0 143-42 143-125 0-51-15-94-90-119-110-37-243-82-239-217 0-123 92-205 243-205 123 0 227 73 236 199l-93 26c-10-102-74-147-148-147-107 0-140 62-140 117s25 87 90 113l94 37c95 37 145 97 145 187 0 106-70 212-251 212" id="bt"/><path fill="#fff" d="M515-353c0 102-45 260-39 353h-88c0-32 2-63 6-91-36 66-96 103-175 103-94 0-156-53-156-137 1-112 102-170 236-171l127-9c18-78-2-137-94-137-71 0-112 29-127 94h-87c18-109 101-164 222-164 118 0 175 53 175 159zm-99 108l-115 8c-98 7-146 41-146 102 0 49 30 77 87 77 98 0 162-82 174-187" id="bu"/><path fill="#fff" d="M156-423c24-54 61-89 122-89 51 0 84 32 90 91 30-60 74-91 134-91 57 0 96 41 96 103 0 129-48 282-68 409h-85c20-121 53-261 66-384 0-33-21-53-57-53-48 0-77 33-90 107L306 0h-83c20-118 66-274 66-380 0-36-22-57-59-57-46 0-73 34-86 107L86 0H1l88-500h80" id="bv"/><path fill="#fff" d="M532-228H172C151-37 383-11 448-152l64 39C463-23 389 12 301 12 164 12 90-72 90-215c0-151 83-297 259-297 168-1 222 134 183 284zM342-446c-87 0-142 57-161 148h279c15-93-38-152-118-148" id="bw"/><path fill="#fff" d="M380 0l16-93C362-26 305 12 225 12 109 12 54-83 54-189c0-166 91-323 250-323 53 0 122 17 146 87l53-300h85L460 0h-80zm39-238c25-105-7-199-102-199-117 0-172 126-172 239 0 70 34 135 114 135 85 0 135-69 160-175" id="bx"/><path fill="#fff" d="M221-500l70 401 210-401h91L281 62C212 186 148 202 79 202c-15 0-30-1-46-4l13-75C153 145 192 79 233-6L125-500h96" id="by"/><path fill="#fff" d="M376-500v128H243v-128h133zm0 372V0H243v-128h133" id="bz"/><g id="B"><use transform="matrix(0.022222222222222202,0,0,0.022222222222222202,0,0)" xlink:href="#bt"/><use transform="matrix(0.022222222222222202,0,0,0.022222222222222202,13.777777777777766,0)" xlink:href="#bu"/><use transform="matrix(0.022222222222222202,0,0,0.022222222222222202,27.555555555555532,0)" xlink:href="#bv"/><use transform="matrix(0.022222222222222202,0,0,0.022222222222222202,41.3333333333333,0)" xlink:href="#bw"/><use transform="matrix(0.022222222222222202,0,0,0.022222222222222202,55.111111111111065,0)" xlink:href="#bx"/><use transform="matrix(0.022222222222222202,0,0,0.022222222222222202,68.88888888888883,0)" xlink:href="#bu"/><use transform="matrix(0.022222222222222202,0,0,0.022222222222222202,82.6666666666666,0)" xlink:href="#by"/><use transform="matrix(0.022222222222222202,0,0,0.022222222222222202,96.44444444444437,0)" xlink:href="#bz"/></g><path fill="#fff" d="M75-384v-80h470v80H75zm0 190v-80h470v80H75" id="bA"/><use transform="matrix(0.022222222222222202,0,0,0.022222222222222202,0,0)" xlink:href="#bA" id="C"/><path fill="#fff" d="M310-710c158 0 253 106 254 363-1 256-96 362-254 362S57-91 56-347c1-257 96-363 254-363zm0 75c-99 0-165 67-166 288 0 59 5 108 15 147l275-367c-29-50-72-68-124-68zm0 575c99 0 165-69 166-287 0-66-6-118-17-159L181-137c29 56 74 77 129 77" id="bB"/><use transform="matrix(0.022222222222222202,0,0,0.022222222222222202,0,0)" xlink:href="#bB" id="D"/><path fill="#fff" d="M120-431l12-69h143l23-131 92-36-30 167h195l-12 69H348l-46 259c-11 67 15 99 79 99 33 0 68-3 100-14L468-9C441 1 411 9 367 9 242 9 198-61 215-160l48-271H120" id="bC"/><path fill="#fff" d="M384-512c109-2 164 83 143 203L473 0h-85c19-116 58-226 58-347 0-59-33-90-95-90-87 0-141 59-161 176L144 0H59l88-500h80l-17 99c36-71 99-111 174-111" id="bD"/><path fill="#fff" d="M245-370c59-107 193-174 333-126l-13 76c-180-47-311 36-351 234L181 0H96l88-500h84" id="bE"/><g id="E"><use transform="matrix(0.022222222222222202,0,0,0.022222222222222202,0,0)" xlink:href="#bt"/><use transform="matrix(0.022222222222222202,0,0,0.022222222222222202,13.777777777777766,0)" xlink:href="#bC"/><use transform="matrix(0.022222222222222202,0,0,0.022222222222222202,27.555555555555532,0)" xlink:href="#bu"/><use transform="matrix(0.022222222222222202,0,0,0.022222222222222202,41.3333333333333,0)" xlink:href="#bD"/><use transform="matrix(0.022222222222222202,0,0,0.022222222222222202,55.111111111111065,0)" xlink:href="#bx"/><use transform="matrix(0.022222222222222202,0,0,0.022222222222222202,68.88888888888883,0)" xlink:href="#bu"/><use transform="matrix(0.022222222222222202,0,0,0.022222222222222202,82.6666666666666,0)" xlink:href="#bE"/><use transform="matrix(0.022222222222222202,0,0,0.022222222222222202,96.44444444444437,0)" xlink:href="#bx"/><use transform="matrix(0.022222222222222202,0,0,0.022222222222222202,110.22222222222214,0)" xlink:href="#bz"/></g><path fill="#fff" d="M372-81h171V0H93v-81h194v-471c-23 35-96 57-185 52v-81c116 8 181-45 199-114h71v614" id="bF"/><path fill="#fff" d="M525-500c0 162-199 332-327 419h335V0H77v-74c57-42 147-114 236-199 88-85 118-143 118-226 0-85-47-133-127-133-106-2-151 85-122 189l-90-9c-32-152 57-259 217-258 135 0 216 75 216 210" id="bG"/><g id="F"><use transform="matrix(0.022222222222222202,0,0,0.022222222222222202,0,0)" xlink:href="#bF"/><use transform="matrix(0.022222222222222202,0,0,0.022222222222222202,13.777777777777766,0)" xlink:href="#bo"/><use transform="matrix(0.022222222222222202,0,0,0.022222222222222202,27.555555555555532,0)" xlink:href="#bG"/></g><g id="G"><use transform="matrix(0.022222222222222202,0,0,0.022222222222222202,0,0)" xlink:href="#bf"/><use transform="matrix(0.022222222222222202,0,0,0.022222222222222202,13.777777777777766,0)" xlink:href="#aZ"/><use transform="matrix(0.022222222222222202,0,0,0.022222222222222202,27.555555555555532,0)" xlink:href="#bk"/></g><g id="H"><use transform="matrix(0.022222222222222202,0,0,0.022222222222222202,0,0)" xlink:href="#aY"/><use transform="matrix(0.022222222222222202,0,0,0.022222222222222202,13.777777777777766,0)" xlink:href="#bd"/></g><g id="I"><use transform="matrix(0.022222222222222202,0,0,0.022222222222222202,0,0)" xlink:href="#bk"/><use transform="matrix(0.022222222222222202,0,0,0.022222222222222202,13.777777777777766,0)" xlink:href="#aT"/><use transform="matrix(0.022222222222222202,0,0,0.022222222222222202,27.555555555555532,0)" xlink:href="#bc"/><use transform="matrix(0.022222222222222202,0,0,0.022222222222222202,41.3333333333333,0)" xlink:href="#aT"/><use transform="matrix(0.022222222222222202,0,0,0.022222222222222202,55.111111111111065,0)" xlink:href="#aZ"/><use transform="matrix(0.022222222222222202,0,0,0.022222222222222202,68.88888888888883,0)" xlink:href="#bk"/><use transform="matrix(0.022222222222222202,0,0,0.022222222222222202,82.6666666666666,0)" xlink:href="#bf"/><use transform="matrix(0.022222222222222202,0,0,0.022222222222222202,96.44444444444437,0)" xlink:href="#aZ"/><use transform="matrix(0.022222222222222202,0,0,0.022222222222222202,110.22222222222214,0)" xlink:href="#be"/></g><g id="J"><use transform="matrix(0.022222222222222202,0,0,0.022222222222222202,0,0)" xlink:href="#aV"/><use transform="matrix(0.022222222222222202,0,0,0.022222222222222202,13.777777777777766,0)" xlink:href="#aZ"/></g><path fill="#fff" d="M472 0L308-297H178V0H85v-710h228c153 0 240 75 240 207 0 96-56 166-151 191L575 0H472zM178-632v261h131c95 0 146-46 146-130 0-85-51-131-146-131H178" id="bH"/><path fill="#fff" d="M76 0v-710h208c195 0 302 149 302 354C586-153 469 0 282 0H76zm93-78h112c134 0 209-131 209-278 0-151-69-276-207-276H169v554" id="bI"/><path fill="#fff" d="M550-710v80H208v227h315v80H208V0h-93v-710h435" id="bJ"/><path fill="#fff" d="M534-635H356v560h178V0H86v-75h177v-560H86v-75h448v75" id="bK"/><g id="K"><use transform="matrix(0.022222222222222202,0,0,0.022222222222222202,0,0)" xlink:href="#bH"/><use transform="matrix(0.022222222222222202,0,0,0.022222222222222202,13.777777777777766,0)" xlink:href="#bI"/><use transform="matrix(0.022222222222222202,0,0,0.022222222222222202,27.555555555555532,0)" xlink:href="#bJ"/><use transform="matrix(0.022222222222222202,0,0,0.022222222222222202,41.3333333333333,0)" xlink:href="#bK"/></g><path fill="#282c33" d="M76 0v-710h208c195 0 302 149 302 354C586-153 469 0 282 0H76zm93-78h112c134 0 209-131 209-278 0-151-69-276-207-276H169v554" id="bL"/><path fill="#282c33" d="M499-304c1 95-5 248 17 304h-89c-4-28-7-61-8-91-33 70-87 103-169 103-99 0-168-61-168-147 0-52 25-90 70-118 40-25 177-43 261-52 2-93-30-138-107-137-71 0-113 36-117 99H98c9-107 87-169 214-169 129 0 187 64 187 208zm-85 61l-119 16c-87 12-123 37-123 87 0 51 35 82 94 82 98 0 156-72 148-185" id="bM"/><path fill="#282c33" d="M177-500L318-99l139-401h91L348 32c-57 144-112 182-236 166v-75C213 143 251 82 276-6L81-500h96" id="bN"/><g id="L"><use transform="matrix(0.022222222222222223,0,0,0.022222222222222223,0,0)" xlink:href="#bL"/><use transform="matrix(0.022222222222222223,0,0,0.022222222222222223,13.777777777777779,0)" xlink:href="#bM"/><use transform="matrix(0.022222222222222223,0,0,0.022222222222222223,27.555555555555557,0)" xlink:href="#bN"/></g><path fill="#282c33" d="M310-710c158 0 253 106 254 363-1 256-96 362-254 362S57-91 56-347c1-257 96-363 254-363zm0 75c-99 0-165 67-166 288 0 59 5 108 15 147l275-367c-29-50-72-68-124-68zm0 575c99 0 165-69 166-287 0-66-6-118-17-159L181-137c29 56 74 77 129 77" id="bO"/><use transform="matrix(0.022222222222222223,0,0,0.022222222222222223,0,0)" xlink:href="#bO" id="M"/><path fill="#fff" d="M520-710v80H198v227h305v78H198v245h329V0H105v-710h415" id="bP"/><g id="N"><use transform="matrix(0.022222222222222223,0,0,0.022222222222222223,0,0)" xlink:href="#bP"/><use transform="matrix(0.022222222222222223,0,0,0.022222222222222223,13.777777777777779,0)" xlink:href="#bb"/><use transform="matrix(0.022222222222222223,0,0,0.022222222222222223,27.555555555555557,0)" xlink:href="#bb"/><use transform="matrix(0.022222222222222223,0,0,0.022222222222222223,41.333333333333336,0)" xlink:href="#aV"/><use transform="matrix(0.022222222222222223,0,0,0.022222222222222223,55.111111111111114,0)" xlink:href="#bb"/></g><path fill="#fff" d="M463 140C303 41 210-137 210-321s93-362 253-461l50 48C368-621 301-495 301-321S368-21 513 92" id="bQ"/><path fill="#fff" d="M363 0v-176H47v-61l304-458h97v449h114v70H448V0h-85zM135-246h228c0-124-1-234 1-356-42 98-125 201-182 291-20 32-29 46-47 65" id="bR"/><path fill="#fff" d="M157 140l-50-48C252-21 319-147 319-321s-67-300-212-413l50-48c160 99 253 277 253 461S317 41 157 140" id="bS"/><g id="O"><use transform="matrix(0.022222222222222223,0,0,0.022222222222222223,0,0)" xlink:href="#bQ"/><use transform="matrix(0.022222222222222223,0,0,0.022222222222222223,13.777777777777779,0)" xlink:href="#bR"/><use transform="matrix(0.022222222222222223,0,0,0.022222222222222223,27.555555555555557,0)" xlink:href="#bB"/><use transform="matrix(0.022222222222222223,0,0,0.022222222222222223,41.333333333333336,0)" xlink:href="#bB"/><use transform="matrix(0.022222222222222223,0,0,0.022222222222222223,55.111111111111114,0)" xlink:href="#bS"/></g><path fill="#282c33" d="M499 0l-66-205H186L121 0H29l228-710h106L591 0h-92zM309-628c-19 84-53 202-98 343h197c-46-141-76-262-99-343" id="bT"/><path fill="#282c33" d="M307 17C122 21 54-143 54-381c0-217 91-346 261-346 148 0 232 81 250 250l-93 15c-8-116-60-185-158-185-111 0-164 81-164 261v51c0 180 57 272 164 272 99 0 150-69 158-186l92 19C549-90 471 17 307 17" id="bU"/><path fill="#282c33" d="M539-710V0h-93v-324H174V0H81v-710h93v308h272v-308h93" id="bV"/><g id="P"><use transform="matrix(0.022222222222222223,0,0,0.022222222222222223,0,0)" xlink:href="#bT"/><use transform="matrix(0.022222222222222223,0,0,0.022222222222222223,13.777777777777779,0)" xlink:href="#bU"/><use transform="matrix(0.022222222222222223,0,0,0.022222222222222223,27.555555555555557,0)" xlink:href="#bV"/></g><path fill="#282c33" d="M224-370c40-103 170-170 310-132v79c-172-40-307 36-309 237V0h-85v-500h84v130" id="bW"/><path fill="#282c33" d="M308-512c166 1 222 128 210 284H167c0 94 54 165 147 165 66 0 107-41 132-89l72 38C476-31 408 12 314 12 157 12 80-96 80-260c0-153 88-252 228-252zm124 214c2-80-38-148-128-148-91 0-137 75-137 148h265" id="bX"/><path fill="#282c33" d="M418-725h85V0h-80v-93C393-28 346 12 264 12 139 12 58-92 58-251c0-157 87-261 219-261 68 0 116 37 141 86v-299zm2 486c0-118-45-199-135-198-86 0-137 69-137 186 0 116 51 188 134 188 85 0 138-68 138-176" id="bY"/><path fill="#282c33" d="M379-720v120H259v-120h120zM125 0v-70h160v-360H140v-70h230v430h169V0H125" id="bZ"/><path fill="#282c33" d="M88-431v-69h143v-131l85-36v167h195v69H316v259c0 67 32 99 96 99 33 0 68-3 99-9v78c-26 6-54 13-98 13-125 0-182-70-182-169v-271H88" id="ca"/><g id="Q"><use transform="matrix(0.022222222222222223,0,0,0.022222222222222223,0,0)" xlink:href="#bU"/><use transform="matrix(0.022222222222222223,0,0,0.022222222222222223,13.777777777777779,0)" xlink:href="#bW"/><use transform="matrix(0.022222222222222223,0,0,0.022222222222222223,27.555555555555557,0)" xlink:href="#bX"/><use transform="matrix(0.022222222222222223,0,0,0.022222222222222223,41.333333333333336,0)" xlink:href="#bY"/><use transform="matrix(0.022222222222222223,0,0,0.022222222222222223,55.111111111111114,0)" xlink:href="#bZ"/><use transform="matrix(0.022222222222222223,0,0,0.022222222222222223,68.88888888888889,0)" xlink:href="#ca"/></g><path fill="#282c33" d="M463 140C303 41 210-137 210-321s93-362 253-461l50 48C368-621 301-495 301-321S368-21 513 92" id="cb"/><path fill="#282c33" d="M558-185c0 96-62 193-218 200v92h-45V14C144 3 77-93 61-202l90-18c15 80 56 149 144 161v-256C177-337 83-402 84-523c0-99 81-181 211-187v-90h45v91c114 8 199 65 212 196l-89 26c-8-100-60-141-123-149v245c109 26 217 57 218 206zM169-525c0 63 54 107 126 123v-236c-98 6-126 64-126 113zM340-57c66-4 133-29 133-115-1-93-68-116-133-131v246" id="cc"/><path fill="#282c33" d="M525-500c0 162-199 332-327 419h335V0H77v-74c57-42 147-114 236-199 88-85 118-143 118-226 0-85-47-133-127-133-106-2-151 85-122 189l-90-9c-32-152 57-259 217-258 135 0 216 75 216 210" id="cd"/><path fill="#282c33" d="M306 15C183 15 95-57 77-170l93-11c14 69 60 119 141 119 92 0 146-62 146-164 0-104-48-173-144-173-74 0-120 43-139 116l-86-9 41-403h384v78H197l-26 236c33-61 89-93 164-93 132 0 212 93 212 243 0 146-94 246-241 246" id="ce"/><path fill="#282c33" d="M157 140l-50-48C252-21 319-147 319-321s-67-300-212-413l50-48c160 99 253 277 253 461S317 41 157 140" id="cf"/><g id="R"><use transform="matrix(0.022222222222222223,0,0,0.022222222222222223,0,0)" xlink:href="#cb"/><use transform="matrix(0.022222222222222223,0,0,0.022222222222222223,13.777777777777779,0)" xlink:href="#cc"/><use transform="matrix(0.022222222222222223,0,0,0.022222222222222223,27.555555555555557,0)" xlink:href="#cd"/><use transform="matrix(0.022222222222222223,0,0,0.022222222222222223,41.333333333333336,0)" xlink:href="#ce"/><use transform="matrix(0.022222222222222223,0,0,0.022222222222222223,55.111111111111114,0)" xlink:href="#cf"/></g><path fill="#282c33" d="M318 17C147 17 72-87 55-204l90-18c16 85 64 161 172 161 67 0 145-23 145-113-5-138-114-126-210-156-99-31-175-87-175-197 0-105 88-200 226-200 130 0 235 54 249 199l-89 26c-9-112-81-147-157-147-104 0-134 61-134 114-1 100 113 122 200 144 95 24 185 67 185 204 0 100-70 204-239 204" id="cg"/><path fill="#282c33" d="M275 12C162 9 101-50 101-191v-309h87v306c0 109 52 133 104 133 105 0 130-105 130-178v-261h85V0h-80v-95C408-45 349 12 275 12" id="ch"/><path fill="#282c33" d="M519-500v69H329V0h-85v-431H91v-69h153c-12-148 42-229 188-228 29 0 53 3 87 10v75c-22-3-49-8-87-8-96-7-108 55-103 151h190" id="ci"/><path fill="#282c33" d="M310 12C158 12 80-103 80-253c0-149 76-259 233-259 111 0 191 64 203 179l-87 10c-9-74-51-115-122-115-92 0-139 74-139 184 0 114 47 191 142 191 73 0 112-44 124-120l81 13C499-68 434 12 310 12" id="cj"/><path fill="#282c33" d="M348-512c108 3 169 66 169 203V0h-85v-304c0-109-54-133-104-133-113 0-140 105-140 176V0h-85v-500h80v99c26-63 81-111 165-111" id="ck"/><g id="S"><use transform="matrix(0.022222222222222223,0,0,0.022222222222222223,0,0)" xlink:href="#cg"/><use transform="matrix(0.022222222222222223,0,0,0.022222222222222223,13.777777777777779,0)" xlink:href="#ch"/><use transform="matrix(0.022222222222222223,0,0,0.022222222222222223,27.555555555555557,0)" xlink:href="#ci"/><use transform="matrix(0.022222222222222223,0,0,0.022222222222222223,41.333333333333336,0)" xlink:href="#ci"/><use transform="matrix(0.022222222222222223,0,0,0.022222222222222223,55.111111111111114,0)" xlink:href="#bZ"/><use transform="matrix(0.022222222222222223,0,0,0.022222222222222223,68.88888888888889,0)" xlink:href="#cj"/><use transform="matrix(0.022222222222222223,0,0,0.022222222222222223,82.66666666666666,0)" xlink:href="#bZ"/><use transform="matrix(0.022222222222222223,0,0,0.022222222222222223,96.44444444444443,0)" xlink:href="#bX"/><use transform="matrix(0.022222222222222223,0,0,0.022222222222222223,110.2222222222222,0)" xlink:href="#ck"/><use transform="matrix(0.022222222222222223,0,0,0.022222222222222223,123.99999999999996,0)" xlink:href="#ca"/></g><path fill="#282c33" d="M310 12C170 12 77-93 77-250c0-159 93-262 233-262s233 103 233 262S450 12 310 12zm0-74c90 0 143-70 143-188 0-117-53-188-143-188s-143 70-143 188S220-62 310-62" id="cl"/><g id="T"><use transform="matrix(0.022222222222222223,0,0,0.022222222222222223,0,0)" xlink:href="#bT"/><use transform="matrix(0.022222222222222223,0,0,0.022222222222222223,13.777777777777779,0)" xlink:href="#cj"/><use transform="matrix(0.022222222222222223,0,0,0.022222222222222223,27.555555555555557,0)" xlink:href="#cj"/><use transform="matrix(0.022222222222222223,0,0,0.022222222222222223,41.333333333333336,0)" xlink:href="#cl"/><use transform="matrix(0.022222222222222223,0,0,0.022222222222222223,55.111111111111114,0)" xlink:href="#ch"/><use transform="matrix(0.022222222222222223,0,0,0.022222222222222223,68.88888888888889,0)" xlink:href="#ck"/><use transform="matrix(0.022222222222222223,0,0,0.022222222222222223,82.66666666666666,0)" xlink:href="#ca"/></g><path fill="#282c33" d="M317-710c183 0 231 105 231 189 0 67-38 129-119 152 85 15 139 77 139 174 0 91-54 195-230 195H90v-710h227zm-134 77v233h133c118 0 137-63 137-114 0-59-26-119-137-119H183zm0 309v247h149c107 0 141-60 141-127 0-68-38-120-131-120H183" id="cm"/><path fill="#282c33" d="M125 0v-70h160v-585H135v-70h235v655h169V0H125" id="cn"/><g id="U"><use transform="matrix(0.022222222222222223,0,0,0.022222222222222223,0,0)" xlink:href="#cm"/><use transform="matrix(0.022222222222222223,0,0,0.022222222222222223,13.777777777777779,0)" xlink:href="#bM"/><use transform="matrix(0.022222222222222223,0,0,0.022222222222222223,27.555555555555557,0)" xlink:href="#cn"/><use transform="matrix(0.022222222222222223,0,0,0.022222222222222223,41.333333333333336,0)" xlink:href="#bM"/><use transform="matrix(0.022222222222222223,0,0,0.022222222222222223,55.111111111111114,0)" xlink:href="#ck"/><use transform="matrix(0.022222222222222223,0,0,0.022222222222222223,68.88888888888889,0)" xlink:href="#cj"/><use transform="matrix(0.022222222222222223,0,0,0.022222222222222223,82.66666666666666,0)" xlink:href="#bX"/></g><g id="V"><use transform="matrix(0.022222222222222223,0,0,0.022222222222222223,0,0)" xlink:href="#bg"/><use transform="matrix(0.022222222222222223,0,0,0.022222222222222223,13.777777777777779,0)" xlink:href="#bh"/><use transform="matrix(0.022222222222222223,0,0,0.022222222222222223,27.555555555555557,0)" xlink:href="#bi"/></g><g id="W"><use transform="matrix(0.022222222222222223,0,0,0.022222222222222223,0,0)" xlink:href="#aY"/><use transform="matrix(0.022222222222222223,0,0,0.022222222222222223,13.777777777777779,0)" xlink:href="#bk"/><use transform="matrix(0.022222222222222223,0,0,0.022222222222222223,27.555555555555557,0)" xlink:href="#bz"/></g><path fill="#fff" d="M0 118h620v70H0v-70" id="co"/><path fill="#fff" d="M310 15C161 15 71-74 67-198l88-11c4 88 59 149 158 149 94 0 149-50 149-137 4-88-77-138-195-127v-74c108 11 175-41 171-122 0-71-44-115-128-115-92 0-146 60-146 161l-84-18c0-134 93-218 235-218 135 0 213 75 213 190 0 69-48 130-120 149 91 16 144 80 144 174 0 126-94 212-242 212" id="cp"/><path fill="#fff" d="M306 15C183 15 95-57 77-170l93-11c14 69 60 119 141 119 92 0 146-62 146-164 0-104-48-173-144-173-74 0-120 43-139 116l-86-9 41-403h384v78H197l-26 236c33-61 89-93 164-93 132 0 212 93 212 243 0 146-94 246-241 246" id="cq"/><path fill="#fff" d="M332-464c131 0 215 94 215 237 0 145-93 242-229 242C152 15 68-105 68-332c0-242 92-378 259-378 115 0 191 60 212 172l-90 20c-16-80-57-117-123-117-110 0-166 94-170 271 32-63 97-100 176-100zM319-60c84 0 138-65 138-166 0-99-54-163-142-163-76 0-132 49-156 141 11 114 70 188 160 188" id="cr"/><g id="X"><use transform="matrix(0.022222222222222223,0,0,0.022222222222222223,0,0)" xlink:href="#bf"/><use transform="matrix(0.022222222222222223,0,0,0.022222222222222223,13.777777777777779,0)" xlink:href="#bj"/><use transform="matrix(0.022222222222222223,0,0,0.022222222222222223,27.555555555555557,0)" xlink:href="#aS"/><use transform="matrix(0.022222222222222223,0,0,0.022222222222222223,41.333333333333336,0)" xlink:href="#co"/><use transform="matrix(0.022222222222222223,0,0,0.022222222222222223,55.111111111111114,0)" xlink:href="#bF"/><use transform="matrix(0.022222222222222223,0,0,0.022222222222222223,68.88888888888889,0)" xlink:href="#bG"/><use transform="matrix(0.022222222222222223,0,0,0.022222222222222223,82.66666666666666,0)" xlink:href="#cp"/><use transform="matrix(0.022222222222222223,0,0,0.022222222222222223,96.44444444444443,0)" xlink:href="#bR"/><use transform="matrix(0.022222222222222223,0,0,0.022222222222222223,110.2222222222222,0)" xlink:href="#cq"/><use transform="matrix(0.022222222222222223,0,0,0.022222222222222223,123.99999999999996,0)" xlink:href="#cr"/></g><g id="Y"><use transform="matrix(0.022222222222222223,0,0,0.022222222222222223,0,0)" xlink:href="#bd"/><use transform="matrix(0.022222222222222223,0,0,0.022222222222222223,13.777777777777779,0)" xlink:href="#be"/><use transform="matrix(0.022222222222222223,0,0,0.022222222222222223,27.555555555555557,0)" xlink:href="#bf"/><use transform="matrix(0.022222222222222223,0,0,0.022222222222222223,41.333333333333336,0)" xlink:href="#be"/><use transform="matrix(0.022222222222222223,0,0,0.022222222222222223,55.111111111111114,0)" xlink:href="#bl"/><use transform="matrix(0.022222222222222223,0,0,0.022222222222222223,68.88888888888889,0)" xlink:href="#bd"/><use transform="matrix(0.022222222222222223,0,0,0.022222222222222223,82.66666666666666,0)" xlink:href="#bz"/></g><g id="Z"><use transform="matrix(0.022222222222222223,0,0,0.022222222222222223,0,0)" xlink:href="#bc"/><use transform="matrix(0.022222222222222223,0,0,0.022222222222222223,13.777777777777779,0)" xlink:href="#aT"/><use transform="matrix(0.022222222222222223,0,0,0.022222222222222223,27.555555555555557,0)" xlink:href="#aZ"/><use transform="matrix(0.022222222222222223,0,0,0.022222222222222223,41.333333333333336,0)" xlink:href="#bk"/><use transform="matrix(0.022222222222222223,0,0,0.022222222222222223,55.111111111111114,0)" xlink:href="#aY"/><use transform="matrix(0.022222222222222223,0,0,0.022222222222222223,68.88888888888889,0)" xlink:href="#aZ"/><use transform="matrix(0.022222222222222223,0,0,0.022222222222222223,82.66666666666666,0)" xlink:href="#ba"/></g><g id="aa"><use transform="matrix(0.022222222222222223,0,0,0.022222222222222223,0,0)" xlink:href="#bc"/><use transform="matrix(0.022222222222222223,0,0,0.022222222222222223,13.777777777777779,0)" xlink:href="#bb"/><use transform="matrix(0.022222222222222223,0,0,0.022222222222222223,27.555555555555557,0)" xlink:href="#aV"/><use transform="matrix(0.022222222222222223,0,0,0.022222222222222223,41.333333333333336,0)" xlink:href="#bj"/><use transform="matrix(0.022222222222222223,0,0,0.022222222222222223,55.111111111111114,0)" xlink:href="#aT"/><use transform="matrix(0.022222222222222223,0,0,0.022222222222222223,68.88888888888889,0)" xlink:href="#bd"/><use transform="matrix(0.022222222222222223,0,0,0.022222222222222223,82.66666666666666,0)" xlink:href="#bd"/><use transform="matrix(0.022222222222222223,0,0,0.022222222222222223,96.44444444444443,0)" xlink:href="#aY"/><use transform="matrix(0.022222222222222223,0,0,0.022222222222222223,110.2222222222222,0)" xlink:href="#aZ"/><use transform="matrix(0.022222222222222223,0,0,0.022222222222222223,123.99999999999996,0)" xlink:href="#ba"/></g><g id="ab"><use transform="matrix(0.022222222222222223,0,0,0.022222222222222223,0,0)" xlink:href="#bd"/><use transform="matrix(0.022222222222222223,0,0,0.022222222222222223,13.777777777777779,0)" xlink:href="#aT"/><use transform="matrix(0.022222222222222223,0,0,0.022222222222222223,27.555555555555557,0)" xlink:href="#aZ"/><use transform="matrix(0.022222222222222223,0,0,0.022222222222222223,41.333333333333336,0)" xlink:href="#be"/></g><path fill="#282c33" d="M39-710h541v131H388V0H230v-579H39v-131" id="cs"/><path fill="#282c33" d="M251-356c35-125 168-184 304-143v136c-145-37-302 0-299 188V0H101v-500h150v144" id="ct"/><path fill="#282c33" d="M531-308c0 96-6 238 13 308H392c-4-33-7-60-8-86-26 61-81 98-164 98-97 0-162-58-162-145 0-116 83-140 208-160l107-15c4-62-12-104-66-101-46 0-72 24-75 72H72c10-112 96-175 241-175 148 0 218 65 218 204zm-154 77l-64 10c-66 12-95 33-95 71 0 37 26 60 67 60 69 0 101-59 92-141" id="cu"/><path fill="#282c33" d="M383-512c109 4 159 66 159 203V0H388v-287c0-79-31-102-71-102-63 0-85 59-85 109V0H77v-500h148v94c27-59 79-106 158-106" id="cv"/><path fill="#282c33" d="M310 12C195 12 108-29 67-103l92-73c32 52 89 82 160 82 53 0 79-19 79-49 0-50-101-51-147-60-93-19-152-66-152-148 0-99 88-161 223-161 100 0 180 34 220 92l-87 76c-32-40-80-65-141-65-47 0-73 16-73 46 0 53 110 52 160 63 89 20 141 65 141 145 0 106-92 167-232 167" id="cw"/><path fill="#282c33" d="M312 12C147 12 55-104 55-252c0-149 89-260 260-260 128 0 216 65 234 176l-151 28c-8-59-39-89-89-89-64 0-97 57-97 140 0 89 33 150 99 150 51 0 80-35 88-93l150 33C533-73 454 12 312 12" id="cx"/><path fill="#282c33" d="M67-390v-110h130v-123l154-59v182h175v110H351v186c0 53 38 81 100 81 31 0 54-1 75-5V-4C499 1 461 7 408 7 271 7 197-52 197-179v-211H67" id="cy"/><path fill="#282c33" d="M406-723v158H230v-158h176zM99 0v-112h151v-276H114v-112h290v388h158V0H99" id="cz"/><path fill="#282c33" d="M310 12C165 12 55-82 55-250c0-170 110-262 255-262s255 92 255 262S455 12 310 12zm0-113c60 0 96-51 96-149s-36-149-96-149-96 51-96 149 36 149 96 149" id="cA"/><g id="ac"><use transform="matrix(0.022222222222222223,0,0,0.022222222222222223,0,0)" xlink:href="#cs"/><use transform="matrix(0.022222222222222223,0,0,0.022222222222222223,13.777777777777779,0)" xlink:href="#ct"/><use transform="matrix(0.022222222222222223,0,0,0.022222222222222223,27.555555555555557,0)" xlink:href="#cu"/><use transform="matrix(0.022222222222222223,0,0,0.022222222222222223,41.333333333333336,0)" xlink:href="#cv"/><use transform="matrix(0.022222222222222223,0,0,0.022222222222222223,55.111111111111114,0)" xlink:href="#cw"/><use transform="matrix(0.022222222222222223,0,0,0.022222222222222223,68.88888888888889,0)" xlink:href="#cu"/><use transform="matrix(0.022222222222222223,0,0,0.022222222222222223,82.66666666666666,0)" xlink:href="#cx"/><use transform="matrix(0.022222222222222223,0,0,0.022222222222222223,96.44444444444443,0)" xlink:href="#cy"/><use transform="matrix(0.022222222222222223,0,0,0.022222222222222223,110.2222222222222,0)" xlink:href="#cz"/><use transform="matrix(0.022222222222222223,0,0,0.022222222222222223,123.99999999999996,0)" xlink:href="#cA"/><use transform="matrix(0.022222222222222223,0,0,0.022222222222222223,137.77777777777774,0)" xlink:href="#cv"/></g><path fill="#282c33" d="M376-500v128H243v-128h133zm0 372V0H243v-128h133" id="cB"/><g id="ad"><use transform="matrix(0.022222222222222223,0,0,0.022222222222222223,0,0)" xlink:href="#bZ"/><use transform="matrix(0.022222222222222223,0,0,0.022222222222222223,13.777777777777779,0)" xlink:href="#bY"/><use transform="matrix(0.022222222222222223,0,0,0.022222222222222223,27.555555555555557,0)" xlink:href="#cB"/></g><path fill="#282c33" d="M309-199L178 0H77l181-258L90-500h100l121 187 114-187h104L364-252 542 0H441" id="cC"/><path fill="#282c33" d="M0 118h620v70H0v-70" id="cD"/><path fill="#282c33" d="M372-81h171V0H93v-81h194v-471c-23 35-96 57-185 52v-81c116 8 181-45 199-114h71v614" id="cE"/><path fill="#282c33" d="M310 15C161 15 71-74 67-198l88-11c4 88 59 149 158 149 94 0 149-50 149-137 4-88-77-138-195-127v-74c108 11 175-41 171-122 0-71-44-115-128-115-92 0-146 60-146 161l-84-18c0-134 93-218 235-218 135 0 213 75 213 190 0 69-48 130-120 149 91 16 144 80 144 174 0 126-94 212-242 212" id="cF"/><path fill="#282c33" d="M363 0v-176H47v-61l304-458h97v449h114v70H448V0h-85zM135-246h228c0-124-1-234 1-356-42 98-125 201-182 291-20 32-29 46-47 65" id="cG"/><path fill="#282c33" d="M332-464c131 0 215 94 215 237 0 145-93 242-229 242C152 15 68-105 68-332c0-242 92-378 259-378 115 0 191 60 212 172l-90 20c-16-80-57-117-123-117-110 0-166 94-170 271 32-63 97-100 176-100zM319-60c84 0 138-65 138-166 0-99-54-163-142-163-76 0-132 49-156 141 11 114 70 188 160 188" id="cH"/><g id="ae"><use transform="matrix(0.022222222222222223,0,0,0.022222222222222223,0,0)" xlink:href="#ca"/><use transform="matrix(0.022222222222222223,0,0,0.022222222222222223,13.777777777777779,0)" xlink:href="#ca"/><use transform="matrix(0.022222222222222223,0,0,0.022222222222222223,27.555555555555557,0)" xlink:href="#cC"/><use transform="matrix(0.022222222222222223,0,0,0.022222222222222223,41.333333333333336,0)" xlink:href="#cD"/><use transform="matrix(0.022222222222222223,0,0,0.022222222222222223,55.111111111111114,0)" xlink:href="#cE"/><use transform="matrix(0.022222222222222223,0,0,0.022222222222222223,68.88888888888889,0)" xlink:href="#cd"/><use transform="matrix(0.022222222222222223,0,0,0.022222222222222223,82.66666666666666,0)" xlink:href="#cF"/><use transform="matrix(0.022222222222222223,0,0,0.022222222222222223,96.44444444444443,0)" xlink:href="#cG"/><use transform="matrix(0.022222222222222223,0,0,0.022222222222222223,110.2222222222222,0)" xlink:href="#ce"/><use transform="matrix(0.022222222222222223,0,0,0.022222222222222223,123.99999999999996,0)" xlink:href="#cH"/></g><path fill="#282c33" d="M345-512c107 4 172 65 172 203V0h-85v-304c0-109-55-133-108-133-109 0-136 105-136 176V0h-85v-725h85v316c23-60 85-103 157-103" id="cI"/><g id="af"><use transform="matrix(0.022222222222222223,0,0,0.022222222222222223,0,0)" xlink:href="#bM"/><use transform="matrix(0.022222222222222223,0,0,0.022222222222222223,13.777777777777779,0)" xlink:href="#cj"/><use transform="matrix(0.022222222222222223,0,0,0.022222222222222223,27.555555555555557,0)" xlink:href="#cI"/><use transform="matrix(0.022222222222222223,0,0,0.022222222222222223,41.333333333333336,0)" xlink:href="#cD"/><use transform="matrix(0.022222222222222223,0,0,0.022222222222222223,55.111111111111114,0)" xlink:href="#bZ"/><use transform="matrix(0.022222222222222223,0,0,0.022222222222222223,68.88888888888889,0)" xlink:href="#bY"/><use transform="matrix(0.022222222222222223,0,0,0.022222222222222223,82.66666666666666,0)" xlink:href="#cB"/></g><g id="ag"><use transform="matrix(0.022222222222222223,0,0,0.022222222222222223,0,0)" xlink:href="#bM"/><use transform="matrix(0.022222222222222223,0,0,0.022222222222222223,13.777777777777779,0)" xlink:href="#cj"/><use transform="matrix(0.022222222222222223,0,0,0.022222222222222223,27.555555555555557,0)" xlink:href="#cI"/><use transform="matrix(0.022222222222222223,0,0,0.022222222222222223,41.333333333333336,0)" xlink:href="#cD"/><use transform="matrix(0.022222222222222223,0,0,0.022222222222222223,55.111111111111114,0)" xlink:href="#cE"/><use transform="matrix(0.022222222222222223,0,0,0.022222222222222223,68.88888888888889,0)" xlink:href="#cd"/><use transform="matrix(0.022222222222222223,0,0,0.022222222222222223,82.66666666666666,0)" xlink:href="#cF"/><use transform="matrix(0.022222222222222223,0,0,0.022222222222222223,96.44444444444443,0)" xlink:href="#cG"/><use transform="matrix(0.022222222222222223,0,0,0.022222222222222223,110.2222222222222,0)" xlink:href="#ce"/><use transform="matrix(0.022222222222222223,0,0,0.022222222222222223,123.99999999999996,0)" xlink:href="#cH"/></g><path fill="#282c33" d="M192-500v93c26-55 86-105 157-105 131 0 208 109 208 261 0 156-80 263-213 263-62 0-124-38-147-91v274h-85v-695h80zm3 237c0 117 44 201 135 200 87 0 137-74 137-188 0-111-46-186-134-186-84 0-138 67-138 174" id="cJ"/><g id="ah"><use transform="matrix(0.022222222222222223,0,0,0.022222222222222223,0,0)" xlink:href="#ca"/><use transform="matrix(0.022222222222222223,0,0,0.022222222222222223,13.777777777777779,0)" xlink:href="#bN"/><use transform="matrix(0.022222222222222223,0,0,0.022222222222222223,27.555555555555557,0)" xlink:href="#cJ"/><use transform="matrix(0.022222222222222223,0,0,0.022222222222222223,41.333333333333336,0)" xlink:href="#bX"/><use transform="matrix(0.022222222222222223,0,0,0.022222222222222223,55.111111111111114,0)" xlink:href="#cB"/></g><g id="ai"><use transform="matrix(0.022222222222222223,0,0,0.022222222222222223,0,0)" xlink:href="#cI"/><use transform="matrix(0.022222222222222223,0,0,0.022222222222222223,13.777777777777779,0)" xlink:href="#cl"/><use transform="matrix(0.022222222222222223,0,0,0.022222222222222223,27.555555555555557,0)" xlink:href="#cn"/><use transform="matrix(0.022222222222222223,0,0,0.022222222222222223,41.333333333333336,0)" xlink:href="#bY"/></g><path fill="#282c33" d="M125-423c20-54 59-89 109-89 49 0 87 33 104 91 50-133 236-127 236 58V0h-85v-356c0-64-30-81-59-81-59 0-80 43-80 106V0h-83v-356c0-61-27-81-59-81-58 0-78 46-78 106V0H45v-500h80v77" id="cK"/><g id="aj"><use transform="matrix(0.022222222222222223,0,0,0.022222222222222223,0,0)" xlink:href="#bM"/><use transform="matrix(0.022222222222222223,0,0,0.022222222222222223,13.777777777777779,0)" xlink:href="#cK"/><use transform="matrix(0.022222222222222223,0,0,0.022222222222222223,27.555555555555557,0)" xlink:href="#cl"/><use transform="matrix(0.022222222222222223,0,0,0.022222222222222223,41.333333333333336,0)" xlink:href="#ch"/><use transform="matrix(0.022222222222222223,0,0,0.022222222222222223,55.111111111111114,0)" xlink:href="#ck"/><use transform="matrix(0.022222222222222223,0,0,0.022222222222222223,68.88888888888889,0)" xlink:href="#ca"/><use transform="matrix(0.022222222222222223,0,0,0.022222222222222223,82.66666666666666,0)" xlink:href="#cB"/></g><g id="ak"><use transform="matrix(0.022222222222222223,0,0,0.022222222222222223,0,0)" xlink:href="#cc"/><use transform="matrix(0.022222222222222223,0,0,0.022222222222222223,13.777777777777779,0)" xlink:href="#cd"/><use transform="matrix(0.022222222222222223,0,0,0.022222222222222223,27.555555555555557,0)" xlink:href="#ce"/></g><path fill="#282c33" d="M321 12c-118 0-198-55-215-154l86-15c12 63 59 99 132 99 67 0 104-33 104-76 3-81-105-73-170-88-84-19-133-64-133-140 0-86 72-150 190-150 112 0 188 51 198 135l-84 19c-11-50-50-85-118-85-64 0-103 28-103 77-4 77 109 75 174 89 89 19 130 63 130 136 0 90-69 153-191 153" id="cL"/><g id="al"><use transform="matrix(0.022222222222222223,0,0,0.022222222222222223,0,0)" xlink:href="#cI"/><use transform="matrix(0.022222222222222223,0,0,0.022222222222222223,13.777777777777779,0)" xlink:href="#cl"/><use transform="matrix(0.022222222222222223,0,0,0.022222222222222223,27.555555555555557,0)" xlink:href="#cn"/><use transform="matrix(0.022222222222222223,0,0,0.022222222222222223,41.333333333333336,0)" xlink:href="#bY"/><use transform="matrix(0.022222222222222223,0,0,0.022222222222222223,55.111111111111114,0)" xlink:href="#cD"/><use transform="matrix(0.022222222222222223,0,0,0.022222222222222223,68.88888888888889,0)" xlink:href="#bW"/><use transform="matrix(0.022222222222222223,0,0,0.022222222222222223,82.66666666666666,0)" xlink:href="#bX"/><use transform="matrix(0.022222222222222223,0,0,0.022222222222222223,96.44444444444443,0)" xlink:href="#cn"/><use transform="matrix(0.022222222222222223,0,0,0.022222222222222223,110.2222222222222,0)" xlink:href="#bX"/><use transform="matrix(0.022222222222222223,0,0,0.022222222222222223,123.99999999999996,0)" xlink:href="#bM"/><use transform="matrix(0.022222222222222223,0,0,0.022222222222222223,137.77777777777774,0)" xlink:href="#cL"/><use transform="matrix(0.022222222222222223,0,0,0.022222222222222223,151.55555555555551,0)" xlink:href="#bX"/></g><path fill="#282c33" d="M28-500h89c20 138 41 275 61 414h7c25-132 55-280 81-414h87c26 134 56 281 81 414h7c20-139 41-276 61-414h89L494 0H387c-24-136-60-259-74-405h-7c-14 146-50 269-74 405H125" id="cM"/><g id="am"><use transform="matrix(0.022222222222222223,0,0,0.022222222222222223,0,0)" xlink:href="#cM"/><use transform="matrix(0.022222222222222223,0,0,0.022222222222222223,13.777777777777779,0)" xlink:href="#bZ"/><use transform="matrix(0.022222222222222223,0,0,0.022222222222222223,27.555555555555557,0)" xlink:href="#ca"/><use transform="matrix(0.022222222222222223,0,0,0.022222222222222223,41.333333333333336,0)" xlink:href="#cI"/><use transform="matrix(0.022222222222222223,0,0,0.022222222222222223,55.111111111111114,0)" xlink:href="#bY"/><use transform="matrix(0.022222222222222223,0,0,0.022222222222222223,68.88888888888889,0)" xlink:href="#bW"/><use transform="matrix(0.022222222222222223,0,0,0.022222222222222223,82.66666666666666,0)" xlink:href="#bM"/><use transform="matrix(0.022222222222222223,0,0,0.022222222222222223,96.44444444444443,0)" xlink:href="#cM"/><use transform="matrix(0.022222222222222223,0,0,0.022222222222222223,110.2222222222222,0)" xlink:href="#bM"/><use transform="matrix(0.022222222222222223,0,0,0.022222222222222223,123.99999999999996,0)" xlink:href="#cn"/></g><path fill="#282c33" d="M203-710c80 190 170 382 245 576-5-188-1-385-2-576h93V0H430c-83-197-177-394-255-595h-3c5 194 1 397 2 595H81v-710h122" id="cN"/><g id="an"><use transform="matrix(0.022222222222222223,0,0,0.022222222222222223,0,0)" xlink:href="#cN"/><use transform="matrix(0.022222222222222223,0,0,0.022222222222222223,13.777777777777779,0)" xlink:href="#bT"/><use transform="matrix(0.022222222222222223,0,0,0.022222222222222223,27.555555555555557,0)" xlink:href="#bU"/><use transform="matrix(0.022222222222222223,0,0,0.022222222222222223,41.333333333333336,0)" xlink:href="#bV"/><use transform="matrix(0.022222222222222223,0,0,0.022222222222222223,55.111111111111114,0)" xlink:href="#bT"/></g><g id="ao"><use transform="matrix(0.022222222222222223,0,0,0.022222222222222223,0,0)" xlink:href="#ci"/><use transform="matrix(0.022222222222222223,0,0,0.022222222222222223,13.777777777777779,0)" xlink:href="#bZ"/><use transform="matrix(0.022222222222222223,0,0,0.022222222222222223,27.555555555555557,0)" xlink:href="#cn"/><use transform="matrix(0.022222222222222223,0,0,0.022222222222222223,41.333333333333336,0)" xlink:href="#bX"/></g><g id="ap"><use transform="matrix(0.022222222222222223,0,0,0.022222222222222223,0,0)" xlink:href="#cL"/><use transform="matrix(0.022222222222222223,0,0,0.022222222222222223,13.777777777777779,0)" xlink:href="#bX"/><use transform="matrix(0.022222222222222223,0,0,0.022222222222222223,27.555555555555557,0)" xlink:href="#ck"/><use transform="matrix(0.022222222222222223,0,0,0.022222222222222223,41.333333333333336,0)" xlink:href="#ca"/></g><g id="aq"><use transform="matrix(0.022222222222222223,0,0,0.022222222222222223,0,0)" xlink:href="#ca"/><use transform="matrix(0.022222222222222223,0,0,0.022222222222222223,13.777777777777779,0)" xlink:href="#cl"/></g><path fill="#282c33" d="M310 17C117 21 51-148 51-387c0-211 86-340 259-340 193-4 259 165 259 404 0 211-86 340-259 340zm0-80c111 0 162-82 162-260v-64c0-178-51-260-162-260s-162 82-162 260v64c0 178 51 260 162 260" id="cO"/><path fill="#282c33" d="M550-710v80H208v227h315v80H208V0h-93v-710h435" id="cP"/><path fill="#282c33" d="M534-635H356v560h178V0H86v-75h177v-560H86v-75h448v75" id="cQ"/><g id="ar"><use transform="matrix(0.022222222222222223,0,0,0.022222222222222223,0,0)" xlink:href="#cO"/><use transform="matrix(0.022222222222222223,0,0,0.022222222222222223,13.777777777777779,0)" xlink:href="#bL"/><use transform="matrix(0.022222222222222223,0,0,0.022222222222222223,27.555555555555557,0)" xlink:href="#cP"/><use transform="matrix(0.022222222222222223,0,0,0.022222222222222223,41.333333333333336,0)" xlink:href="#cQ"/></g><g id="as"><use transform="matrix(0.022222222222222223,0,0,0.022222222222222223,0,0)" xlink:href="#ci"/><use transform="matrix(0.022222222222222223,0,0,0.022222222222222223,13.777777777777779,0)" xlink:href="#cl"/><use transform="matrix(0.022222222222222223,0,0,0.022222222222222223,27.555555555555557,0)" xlink:href="#bW"/></g><path fill="#282c33" d="M560-504c-53-11-94-1-111 44 29 29 45 69 45 116 0 102-76 171-188 171-35 0-67-7-93-20-57 29-45 100 48 100h129c104 0 163 51 163 136 0 105-91 164-247 164-142 0-227-49-227-127 0-54 34-94 87-112-41-17-63-47-63-89 0-46 26-80 72-97-32-29-50-71-50-121 0-102 75-173 186-173 37 0 69 8 96 22 20-68 75-104 153-88v74zM307-238c62 0 107-45 107-106 0-60-43-103-104-103-62 0-105 44-105 106 0 61 42 103 102 103zM216-20c-33 15-53 42-53 76 0 53 49 81 152 81 107 0 153-30 153-85 7-98-164-62-252-72" id="cR"/><g id="at"><use transform="matrix(0.022222222222222223,0,0,0.022222222222222223,0,0)" xlink:href="#cJ"/><use transform="matrix(0.022222222222222223,0,0,0.022222222222222223,13.777777777777779,0)" xlink:href="#bW"/><use transform="matrix(0.022222222222222223,0,0,0.022222222222222223,27.555555555555557,0)" xlink:href="#cl"/><use transform="matrix(0.022222222222222223,0,0,0.022222222222222223,41.333333333333336,0)" xlink:href="#cj"/><use transform="matrix(0.022222222222222223,0,0,0.022222222222222223,55.111111111111114,0)" xlink:href="#bX"/><use transform="matrix(0.022222222222222223,0,0,0.022222222222222223,68.88888888888889,0)" xlink:href="#cL"/><use transform="matrix(0.022222222222222223,0,0,0.022222222222222223,82.66666666666666,0)" xlink:href="#cL"/><use transform="matrix(0.022222222222222223,0,0,0.022222222222222223,96.44444444444443,0)" xlink:href="#bZ"/><use transform="matrix(0.022222222222222223,0,0,0.022222222222222223,110.2222222222222,0)" xlink:href="#ck"/><use transform="matrix(0.022222222222222223,0,0,0.022222222222222223,123.99999999999996,0)" xlink:href="#cR"/></g><path fill="#282c33" d="M263 0L63-500h89c52 138 107 273 156 413h4c44-144 106-275 157-413h87L355 0h-92" id="cS"/><g id="au"><use transform="matrix(0.022222222222222223,0,0,0.022222222222222223,0,0)" xlink:href="#bW"/><use transform="matrix(0.022222222222222223,0,0,0.022222222222222223,13.777777777777779,0)" xlink:href="#bX"/><use transform="matrix(0.022222222222222223,0,0,0.022222222222222223,27.555555555555557,0)" xlink:href="#cj"/><use transform="matrix(0.022222222222222223,0,0,0.022222222222222223,41.333333333333336,0)" xlink:href="#bX"/><use transform="matrix(0.022222222222222223,0,0,0.022222222222222223,55.111111111111114,0)" xlink:href="#bZ"/><use transform="matrix(0.022222222222222223,0,0,0.022222222222222223,68.88888888888889,0)" xlink:href="#cS"/><use transform="matrix(0.022222222222222223,0,0,0.022222222222222223,82.66666666666666,0)" xlink:href="#bX"/><use transform="matrix(0.022222222222222223,0,0,0.022222222222222223,96.44444444444443,0)" xlink:href="#bY"/></g><path fill="#282c33" d="M197-725v312c27-58 87-99 154-99 129 0 206 109 206 261 0 156-79 263-209 263-67 0-129-37-156-98L177 0h-65v-725h85zm-2 463c0 116 41 200 133 199 87 0 139-74 139-188 0-111-49-186-137-186-85 0-135 67-135 175" id="cT"/><g id="av"><use transform="matrix(0.022222222222222223,0,0,0.022222222222222223,0,0)" xlink:href="#cT"/><use transform="matrix(0.022222222222222223,0,0,0.022222222222222223,13.777777777777779,0)" xlink:href="#bN"/></g><path fill="#282c33" d="M472 0L308-297H178V0H85v-710h228c153 0 240 75 240 207 0 96-56 166-151 191L575 0H472zM178-632v261h131c95 0 146-46 146-130 0-85-51-131-146-131H178" id="cU"/><g id="aw"><use transform="matrix(0.022222222222222223,0,0,0.022222222222222223,0,0)" xlink:href="#cU"/><use transform="matrix(0.022222222222222223,0,0,0.022222222222222223,13.777777777777779,0)" xlink:href="#bL"/><use transform="matrix(0.022222222222222223,0,0,0.022222222222222223,27.555555555555557,0)" xlink:href="#cP"/><use transform="matrix(0.022222222222222223,0,0,0.022222222222222223,41.333333333333336,0)" xlink:href="#cQ"/></g><g id="ax"><use transform="matrix(0.022222222222222223,0,0,0.022222222222222223,0,0)" xlink:href="#cP"/><use transform="matrix(0.022222222222222223,0,0,0.022222222222222223,13.777777777777779,0)" xlink:href="#ch"/><use transform="matrix(0.022222222222222223,0,0,0.022222222222222223,27.555555555555557,0)" xlink:href="#ck"/><use transform="matrix(0.022222222222222223,0,0,0.022222222222222223,41.333333333333336,0)" xlink:href="#bY"/><use transform="matrix(0.022222222222222223,0,0,0.022222222222222223,55.111111111111114,0)" xlink:href="#cL"/></g><g id="ay"><use transform="matrix(0.022222222222222223,0,0,0.022222222222222223,0,0)" xlink:href="#bY"/><use transform="matrix(0.022222222222222223,0,0,0.022222222222222223,13.777777777777779,0)" xlink:href="#bX"/><use transform="matrix(0.022222222222222223,0,0,0.022222222222222223,27.555555555555557,0)" xlink:href="#cJ"/><use transform="matrix(0.022222222222222223,0,0,0.022222222222222223,41.333333333333336,0)" xlink:href="#cl"/><use transform="matrix(0.022222222222222223,0,0,0.022222222222222223,55.111111111111114,0)" xlink:href="#cL"/><use transform="matrix(0.022222222222222223,0,0,0.022222222222222223,68.88888888888889,0)" xlink:href="#bZ"/><use transform="matrix(0.022222222222222223,0,0,0.022222222222222223,82.66666666666666,0)" xlink:href="#ca"/><use transform="matrix(0.022222222222222223,0,0,0.022222222222222223,96.44444444444443,0)" xlink:href="#bX"/><use transform="matrix(0.022222222222222223,0,0,0.022222222222222223,110.2222222222222,0)" xlink:href="#bY"/></g><g id="az"><use transform="matrix(0.022222222222222223,0,0,0.022222222222222223,0,0)" xlink:href="#bZ"/><use transform="matrix(0.022222222222222223,0,0,0.022222222222222223,13.777777777777779,0)" xlink:href="#ck"/><use transform="matrix(0.022222222222222223,0,0,0.022222222222222223,27.555555555555557,0)" xlink:href="#ca"/><use transform="matrix(0.022222222222222223,0,0,0.022222222222222223,41.333333333333336,0)" xlink:href="#cl"/></g><g id="aA"><use transform="matrix(0.022222222222222223,0,0,0.022222222222222223,0,0)" xlink:href="#bW"/><use transform="matrix(0.022222222222222223,0,0,0.022222222222222223,13.777777777777779,0)" xlink:href="#bX"/><use transform="matrix(0.022222222222222223,0,0,0.022222222222222223,27.555555555555557,0)" xlink:href="#cj"/><use transform="matrix(0.022222222222222223,0,0,0.022222222222222223,41.333333333333336,0)" xlink:href="#bZ"/><use transform="matrix(0.022222222222222223,0,0,0.022222222222222223,55.111111111111114,0)" xlink:href="#cJ"/><use transform="matrix(0.022222222222222223,0,0,0.022222222222222223,68.88888888888889,0)" xlink:href="#bZ"/><use transform="matrix(0.022222222222222223,0,0,0.022222222222222223,82.66666666666666,0)" xlink:href="#bX"/><use transform="matrix(0.022222222222222223,0,0,0.022222222222222223,96.44444444444443,0)" xlink:href="#ck"/><use transform="matrix(0.022222222222222223,0,0,0.022222222222222223,110.2222222222222,0)" xlink:href="#ca"/><use transform="matrix(0.022222222222222223,0,0,0.022222222222222223,123.99999999999996,0)" xlink:href="#cL"/></g><g id="aB"><use transform="matrix(0.022222222222222223,0,0,0.022222222222222223,0,0)" xlink:href="#bM"/><use transform="matrix(0.022222222222222223,0,0,0.022222222222222223,13.777777777777779,0)" xlink:href="#cj"/><use transform="matrix(0.022222222222222223,0,0,0.022222222222222223,27.555555555555557,0)" xlink:href="#cj"/><use transform="matrix(0.022222222222222223,0,0,0.022222222222222223,41.333333333333336,0)" xlink:href="#cl"/><use transform="matrix(0.022222222222222223,0,0,0.022222222222222223,55.111111111111114,0)" xlink:href="#ch"/><use transform="matrix(0.022222222222222223,0,0,0.022222222222222223,68.88888888888889,0)" xlink:href="#ck"/><use transform="matrix(0.022222222222222223,0,0,0.022222222222222223,82.66666666666666,0)" xlink:href="#ca"/></g><use transform="matrix(0.022222222222222223,0,0,0.022222222222222223,0,0)" xlink:href="#bO" id="aC"/><path fill="#282c33" d="M545-366v73H352v202h-85v-202H75v-73h192v-190h85v190h193" id="cV"/><use transform="matrix(0.022222222222222223,0,0,0.022222222222222223,0,0)" xlink:href="#cV" id="aD"/><path fill="#282c33" d="M39-710h540v80H356V0h-94v-630H39v-80" id="cW"/><use transform="matrix(0.022222222222222223,0,0,0.022222222222222223,0,0)" xlink:href="#cW" id="aE"/><path fill="#3a414a" d="M203-710c80 190 170 382 245 576-5-188-1-385-2-576h93V0H430c-83-197-177-394-255-595h-3c5 194 1 397 2 595H81v-710h122" id="cX"/><path fill="#3a414a" d="M310 12C170 12 77-93 77-250c0-159 93-262 233-262s233 103 233 262S450 12 310 12zm0-74c90 0 143-70 143-188 0-117-53-188-143-188s-143 70-143 188S220-62 310-62" id="cY"/><g id="aF"><use transform="matrix(0.02222222222222222,0,0,0.02222222222222222,0,0)" xlink:href="#cX"/><use transform="matrix(0.02222222222222222,0,0,0.02222222222222222,13.777777777777777,0)" xlink:href="#cY"/></g><path fill="#3a414a" d="M318 17C147 17 72-87 55-204l90-18c16 85 64 161 172 161 67 0 145-23 145-113-5-138-114-126-210-156-99-31-175-87-175-197 0-105 88-200 226-200 130 0 235 54 249 199l-89 26c-9-112-81-147-157-147-104 0-134 61-134 114-1 100 113 122 200 144 95 24 185 67 185 204 0 100-70 204-239 204" id="cZ"/><path fill="#3a414a" d="M88-431v-69h143v-131l85-36v167h195v69H316v259c0 67 32 99 96 99 33 0 68-3 99-9v78c-26 6-54 13-98 13-125 0-182-70-182-169v-271H88" id="da"/><path fill="#3a414a" d="M499-304c1 95-5 248 17 304h-89c-4-28-7-61-8-91-33 70-87 103-169 103-99 0-168-61-168-147 0-52 25-90 70-118 40-25 177-43 261-52 2-93-30-138-107-137-71 0-113 36-117 99H98c9-107 87-169 214-169 129 0 187 64 187 208zm-85 61l-119 16c-87 12-123 37-123 87 0 51 35 82 94 82 98 0 156-72 148-185" id="db"/><path fill="#3a414a" d="M275 12C162 9 101-50 101-191v-309h87v306c0 109 52 133 104 133 105 0 130-105 130-178v-261h85V0h-80v-95C408-45 349 12 275 12" id="dc"/><path fill="#3a414a" d="M321 12c-118 0-198-55-215-154l86-15c12 63 59 99 132 99 67 0 104-33 104-76 3-81-105-73-170-88-84-19-133-64-133-140 0-86 72-150 190-150 112 0 188 51 198 135l-84 19c-11-50-50-85-118-85-64 0-103 28-103 77-4 77 109 75 174 89 89 19 130 63 130 136 0 90-69 153-191 153" id="dd"/><g id="aG"><use transform="matrix(0.02222222222222222,0,0,0.02222222222222222,0,0)" xlink:href="#cZ"/><use transform="matrix(0.02222222222222222,0,0,0.02222222222222222,13.777777777777777,0)" xlink:href="#da"/><use transform="matrix(0.02222222222222222,0,0,0.02222222222222222,27.555555555555554,0)" xlink:href="#db"/><use transform="matrix(0.02222222222222222,0,0,0.02222222222222222,41.33333333333333,0)" xlink:href="#da"/><use transform="matrix(0.02222222222222222,0,0,0.02222222222222222,55.11111111111111,0)" xlink:href="#dc"/><use transform="matrix(0.02222222222222222,0,0,0.02222222222222222,68.88888888888889,0)" xlink:href="#dd"/></g><path fill="#3a414a" d="M192-500v93c26-55 86-105 157-105 131 0 208 109 208 261 0 156-80 263-213 263-62 0-124-38-147-91v274h-85v-695h80zm3 237c0 117 44 201 135 200 87 0 137-74 137-188 0-111-46-186-134-186-84 0-138 67-138 174" id="de"/><path fill="#3a414a" d="M418-725h85V0h-80v-93C393-28 346 12 264 12 139 12 58-92 58-251c0-157 87-261 219-261 68 0 116 37 141 86v-299zm2 486c0-118-45-199-135-198-86 0-137 69-137 186 0 116 51 188 134 188 85 0 138-68 138-176" id="df"/><path fill="#3a414a" d="M308-512c166 1 222 128 210 284H167c0 94 54 165 147 165 66 0 107-41 132-89l72 38C476-31 408 12 314 12 157 12 80-96 80-260c0-153 88-252 228-252zm124 214c2-80-38-148-128-148-91 0-137 75-137 148h265" id="dg"/><g id="aH"><use transform="matrix(0.02222222222222222,0,0,0.02222222222222222,0,0)" xlink:href="#dc"/><use transform="matrix(0.02222222222222222,0,0,0.02222222222222222,13.777777777777777,0)" xlink:href="#de"/><use transform="matrix(0.02222222222222222,0,0,0.02222222222222222,27.555555555555554,0)" xlink:href="#df"/><use transform="matrix(0.02222222222222222,0,0,0.02222222222222222,41.33333333333333,0)" xlink:href="#db"/><use transform="matrix(0.02222222222222222,0,0,0.02222222222222222,55.11111111111111,0)" xlink:href="#da"/><use transform="matrix(0.02222222222222222,0,0,0.02222222222222222,68.88888888888889,0)" xlink:href="#dg"/></g><path fill="#3a414a" d="M357-283V0h-93v-283L33-710h103l174 350 174-350h103" id="dh"/><g id="aI"><use transform="matrix(0.02222222222222222,0,0,0.02222222222222222,0,0)" xlink:href="#dh"/><use transform="matrix(0.02222222222222222,0,0,0.02222222222222222,13.777777777777777,0)" xlink:href="#dg"/><use transform="matrix(0.02222222222222222,0,0,0.02222222222222222,27.555555555555554,0)" xlink:href="#dd"/></g></defs></g></svg>